<svg width="20" height="20" fill="none" xmlns="http://www.w3.org/2000/svg">
  <path d="M10.0009 13.932c-.5911.4499-1.8115 1.5625-1.8115 3.0783 0 1.0008.8122 1.815 1.8105 1.815.9984 0 1.8106-.8142 1.8106-1.815 0-1.4356-1.2211-2.6004-1.8096-3.0783Z" fill="#EF8964"/>
  <path d="M14.2434 3.481c-.2196-.2484-.5985-.2634-.8377-.0402l-2.7572 2.5734V.6249c0-.451-.5439-.7882-.9513-.5418-.077.0467-1.9094 1.1656-3.7609 3.1975C3.6852 5.7512 2.152 8.7594 2.152 12.133 2.152 16.4709 5.6726 20 10 20c-1.6446 0-2.9825-1.3412-2.9825-2.9897 0-2.6637 2.5863-4.241 2.6964-4.3069a.5851.5851 0 0 1 .6222.0137c.108.0712 2.6463 1.7737 2.6463 4.2932C12.9824 18.6588 11.6445 20 10 20c4.3273 0 7.8479-3.5291 7.8479-7.867 0-3.2756-1.4454-6.2115-3.6045-8.652Z" fill="#EF8964"/>
</svg>
