<svg width="20" height="20" fill="none" xmlns="http://www.w3.org/2000/svg">
  <path d="M3.25 5h-1.5a.7482.7482 0 0 0-.75.75V9H.25a.2507.2507 0 0 0-.25.25v1.5c0 .1375.1125.25.25.25H1v3.25c0 .4156.3344.75.75.75h1.5c.4156 0 .75-.3344.75-.75v-8.5A.7482.7482 0 0 0 3.25 5Zm16.5 4H19V5.75a.7482.7482 0 0 0-.75-.75h-1.5a.7482.7482 0 0 0-.75.75v8.5c0 .4156.3344.75.75.75h1.5c.4156 0 .75-.3344.75-.75V11h.75c.1375 0 .25-.1125.25-.25v-1.5a.2507.2507 0 0 0-.25-.25Zm-5.5-6h-1.5a.7482.7482 0 0 0-.75.75V9H8V3.75A.7482.7482 0 0 0 7.25 3h-1.5a.7482.7482 0 0 0-.75.75v12.5c0 .4156.3344.75.75.75h1.5c.4156 0 .75-.3344.75-.75V11h4v5.25c0 .4156.3344.75.75.75h1.5c.4156 0 .75-.3344.75-.75V3.75a.7482.7482 0 0 0-.75-.75Z" fill="#EF8964"/>
</svg>
