<svg aria-hidden="true" style="position: absolute; width: 0; height: 0; overflow: hidden;" version="1.1" xmlns="http://www.w3.org/2000/svg" xmlns:xlink="http://www.w3.org/1999/xlink">
<defs>
<symbol id="icon-add-arrow" viewBox="0 0 32 32">
<path fill="none" stroke="#e6533c" style="stroke: var(--color1, #e6533c)" stroke-linejoin="round" stroke-linecap="round" stroke-miterlimit="4" stroke-width="2.7733" d="M16 29.867l13.867-13.867M29.867 16l-13.867-13.867M29.867 16h-27.733"></path>
</symbol>
<symbol id="icon-apple" viewBox="0 0 32 32">
<path fill="#ef8964" style="fill: var(--color2, #ef8964)" d="M19.454 4.758c0.32-0.109 0.546-0.407 0.546-0.758 0-0.442-0.358-0.8-0.8-0.8-0.091 0-0.178 0.015-0.259 0.043l0.006-0.002c-1.501 0.499-2.435 1.731-2.986 3.051-0.054 0.121-0.123 0.301-0.185 0.483l-0.018 0.059c-0.719-1.345-1.864-2.384-3.253-2.948l-0.043-0.015c-0.699-0.286-1.51-0.452-2.36-0.452-0.065 0-0.13 0.001-0.195 0.003l0.009-0c-0.928 0.026-1.669 0.768-1.694 1.694-0.002 0.055-0.003 0.12-0.003 0.185 0 1.765 0.716 3.363 1.875 4.519l0 0 0.050 0.048c-2.738 0.608-4.793 2.908-5.026 5.724l-0.002 0.023-0.010 0.118c-0.028 0.325-0.043 0.704-0.043 1.087 0 2.387 0.615 4.63 1.695 6.58l-0.035-0.070 0.576 1.053c0.016 0.027 0.032 0.054 0.051 0.080l1.6 2.243c0.789 1.095 2.061 1.799 3.496 1.799 1.186 0 2.26-0.481 3.038-1.258l-0 0c0.132-0.132 0.314-0.214 0.516-0.214s0.384 0.082 0.516 0.214l0 0c0.777 0.778 1.852 1.259 3.038 1.259 1.436 0 2.707-0.705 3.487-1.787l0.009-0.013 1.6-2.242c0.017-0.023 0.034-0.050 0.049-0.078l0.002-0.004 0.574-1.053c1.045-1.88 1.659-4.123 1.659-6.51 0-0.382-0.016-0.761-0.047-1.136l0.003 0.049-0.008-0.118c-0.271-3.308-3.022-5.889-6.377-5.889-0.373 0-0.738 0.032-1.093 0.093l0.038-0.005-2.651 0.442c0.016-1.090 0.208-2.315 0.638-3.349 0.448-1.080 1.114-1.848 2.013-2.149h0.002zM11.054 14.358c-0.503 0.162-0.907 0.508-1.142 0.957l-0.005 0.011c-0.296 0.557-0.499 1.475-0.312 2.974 0.003 0.024 0.004 0.052 0.004 0.080 0 0.442-0.358 0.8-0.8 0.8-0.4 0-0.732-0.294-0.791-0.678l-0.001-0.004c-0.213-1.702-0.016-2.984 0.488-3.926 0.512-0.96 1.291-1.478 2.053-1.733 0.075-0.026 0.162-0.041 0.253-0.041 0.442 0 0.8 0.358 0.8 0.8 0 0.351-0.227 0.65-0.542 0.758l-0.006 0.002z"></path>
</symbol>
<symbol id="icon-arrow-modal" viewBox="0 0 32 32">
<path fill="none" stroke="#505050" style="stroke: var(--color3, #505050)" stroke-linejoin="round" stroke-linecap="round" stroke-miterlimit="4" stroke-width="2.6" d="M15 28l13-13M28 15l-13-13M28 15h-26"></path>
</symbol>
<symbol id="icon-bubble" viewBox="0 0 32 32">
<path fill="#ef8964" style="fill: var(--color2, #ef8964)" d="M20.794 16.346c3.778 0 6.84-3.062 6.84-6.84s-3.062-6.84-6.84-6.84v0c-3.778 0-6.84 3.062-6.84 6.84s3.062 6.84 6.84 6.84v0zM8.475 25.92c2.268 0 4.107-1.839 4.107-4.107s-1.839-4.107-4.107-4.107v0c-2.233 0.045-4.026 1.867-4.026 4.106s1.793 4.061 4.022 4.106l0.004 0zM22.15 29.333c1.885 0 3.414-1.528 3.414-3.414s-1.528-3.414-3.414-3.414v0c-1.885 0-3.414 1.528-3.414 3.414s1.528 3.414 3.414 3.414v0z"></path>
</symbol>
<symbol id="icon-burger-menu" viewBox="0 0 32 32">
<path fill="none" stroke="#e6533c" style="stroke: var(--color1, #e6533c)" stroke-linejoin="round" stroke-linecap="round" stroke-miterlimit="4" stroke-width="2" d="M4 16h16M4 8h24M4 24h24"></path>
</symbol>
<symbol id="icon-calendar-bage" viewBox="0 0 32 32">
<path fill="none" stroke="#ef8964" style="stroke: var(--color2, #ef8964)" stroke-linejoin="round" stroke-linecap="round" stroke-miterlimit="4" stroke-width="2.6667" d="M25.333 5.333h-18.667c-1.473 0-2.667 1.194-2.667 2.667v0 18.667c0 1.473 1.194 2.667 2.667 2.667v0h18.667c1.473 0 2.667-1.194 2.667-2.667v0-18.667c0-1.473-1.194-2.667-2.667-2.667v0zM21.333 2.667v5.333M10.667 2.667v5.333M4 13.333h24"></path>
</symbol>
<symbol id="icon-calendar-withe" viewBox="0 0 32 32">
<path fill="none" stroke="#efede8" style="stroke: var(--color3, #efede8)" stroke-linejoin="round" stroke-linecap="round" stroke-miterlimit="4" stroke-width="2.6667" d="M25.333 5.333h-18.667c-1.473 0-2.667 1.194-2.667 2.667v0 18.667c0 1.473 1.194 2.667 2.667 2.667v0h18.667c1.473 0 2.667-1.194 2.667-2.667v0-18.667c0-1.473-1.194-2.667-2.667-2.667v0zM21.333 2.667v5.333M10.667 2.667v5.333M4 13.333h24"></path>
</symbol>
<symbol id="icon-calories" viewBox="0 0 32 32">
<path fill="#ef8964" style="fill: var(--color2, #ef8964)" d="M16 22.291c-0.944 0.72-2.896 2.501-2.896 4.925 0 1.602 1.299 2.904 2.896 2.904s2.896-1.302 2.896-2.904c0-2.296-1.952-4.16-2.896-4.925z"></path>
<path fill="#ef8964" style="fill: var(--color2, #ef8964)" d="M22.789 5.57c-0.172-0.194-0.422-0.316-0.701-0.316-0.247 0-0.472 0.096-0.639 0.252l0.001-0-4.413 4.117v-8.624c0-0.72-0.869-1.259-1.52-0.864-0.125 0.074-3.058 1.862-6.021 5.114-3.6 3.952-6.054 8.765-6.054 14.163 0.002 6.942 5.634 12.589 12.558 12.589-2.637-0.007-4.771-2.146-4.771-4.784 0 0 0 0 0-0v0c0-4.261 4.138-6.784 4.314-6.891 0.137-0.083 0.303-0.132 0.48-0.132 0.192 0 0.37 0.058 0.519 0.157l-0.003-0.002c0.173 0.114 4.234 2.838 4.234 6.869 0 0 0 0 0 0 0 2.638-2.135 4.777-4.77 4.784h-0.001c6.923 0 12.557-5.648 12.557-12.587 0-5.242-2.312-9.938-5.768-13.843z"></path>
</symbol>
<symbol id="icon-check-mark" viewBox="0 0 33 32">
<path fill="#e6533c" style="fill: var(--color1, #e6533c)" d="M11.238 0.428l4.69 1.356c0.34 0.098 0.7 0.099 1.039 0.002l4.83-1.375c0.154-0.046 0.332-0.072 0.515-0.072 0.708 0 1.325 0.391 1.646 0.969l0.005 0.010 2.506 4.577c0.168 0.307 0.419 0.561 0.724 0.734l3.986 2.258c0.574 0.33 0.954 0.939 0.954 1.638 0 0.2-0.031 0.393-0.089 0.574l0.004-0.013-1.38 4.428c-0.054 0.168-0.085 0.361-0.085 0.561 0 0.198 0.031 0.389 0.087 0.568l-0.004-0.013 1.394 4.521c0.053 0.166 0.084 0.357 0.084 0.555 0 0.69-0.371 1.293-0.924 1.62l-0.009 0.005-4.443 2.598c-0.303 0.177-0.55 0.435-0.715 0.746l-2.113 4.004c-0.322 0.601-0.946 1.003-1.664 1.003-0.171 0-0.336-0.023-0.494-0.065l0.013 0.003-4.864-1.284c-0.144-0.040-0.309-0.062-0.48-0.062-0.173 0-0.341 0.023-0.501 0.067l0.013-0.003-4.713 1.264c-0.146 0.041-0.315 0.064-0.488 0.064-0.735 0-1.372-0.422-1.682-1.037l-0.005-0.011-2.106-4.256c-0.181-0.36-0.461-0.646-0.806-0.829l-0.010-0.005-4.305-2.247c-0.606-0.321-1.012-0.947-1.012-1.669 0-0.178 0.025-0.351 0.071-0.514l-0.003 0.013 1.256-4.548c0.089-0.322 0.090-0.662 0.004-0.985l-1.287-4.841c-0.040-0.145-0.063-0.312-0.063-0.484 0-0.704 0.386-1.317 0.958-1.64l0.009-0.005 4.422-2.46c0.321-0.178 0.584-0.447 0.754-0.774l2.090-4.006c0.321-0.606 0.947-1.012 1.669-1.012 0.186 0 0.366 0.027 0.536 0.077l-0.013-0.003z"></path>
<path fill="none" stroke="#efede8" style="stroke: var(--color3, #efede8)" stroke-linejoin="round" stroke-linecap="round" stroke-miterlimit="4" stroke-width="2" d="M16.5 10.75v10.5M11.25 16h10.5"></path>
</symbol>
<symbol id="icon-dumbbell" viewBox="0 0 32 32">
<path fill="#ef8964" style="fill: var(--color2, #ef8964)" d="M5.2 8h-2.4c-0.001 0-0.002 0-0.003 0-0.661 0-1.197 0.536-1.197 1.197 0 0.001 0 0.002 0 0.003v-0 5.2h-1.2c-0.221 0-0.4 0.179-0.4 0.4v0 2.4c0 0.219 0.181 0.4 0.4 0.4h1.2v5.2c0 0.666 0.534 1.2 1.2 1.2h2.4c0.666 0 1.2-0.534 1.2-1.2v-13.6c0-0.001 0-0.002 0-0.003 0-0.661-0.536-1.197-1.197-1.197-0.001 0-0.002 0-0.003 0h0zM31.6 14.4h-1.2v-5.2c0-0.001 0-0.002 0-0.003 0-0.661-0.536-1.197-1.197-1.197-0.001 0-0.002 0-0.003 0h-2.4c-0.001 0-0.002 0-0.003 0-0.661 0-1.197 0.536-1.197 1.197 0 0.001 0 0.002 0 0.003v-0 13.6c0 0.666 0.534 1.2 1.2 1.2h2.4c0.666 0 1.2-0.534 1.2-1.2v-5.2h1.2c0.221 0 0.4-0.179 0.4-0.4v0-2.4c0-0.221-0.179-0.4-0.4-0.4v0zM22.8 4.8h-2.4c-0.001 0-0.002 0-0.003 0-0.661 0-1.197 0.536-1.197 1.197 0 0.001 0 0.002 0 0.003v-0 8.4h-6.4v-8.4c0-0.001 0-0.002 0-0.003 0-0.661-0.536-1.197-1.197-1.197-0.001 0-0.002 0-0.003 0h-2.4c-0.001 0-0.002 0-0.003 0-0.661 0-1.197 0.536-1.197 1.197 0 0.001 0 0.002 0 0.003v-0 20c0 0.666 0.534 1.2 1.2 1.2h2.4c0.666 0 1.2-0.534 1.2-1.2v-8.4h6.4v8.4c0 0.666 0.534 1.2 1.2 1.2h2.4c0.666 0 1.2-0.534 1.2-1.2v-20c0-0.001 0-0.002 0-0.003 0-0.661-0.536-1.197-1.197-1.197-0.001 0-0.002 0-0.003 0h0z"></path>
</symbol>
<symbol id="icon-fork-knife" viewBox="0 0 32 32">
<path fill="#ef8964" style="fill: var(--color2, #ef8964)" d="M24 4c0.682 0 1.244 0.511 1.324 1.171l0.001 0.006 0.008 0.155v21.334c-0.015 0.725-0.607 1.307-1.334 1.307-0.673 0-1.229-0.498-1.321-1.145l-0.001-0.007-0.010-0.155v-6.667h-1.334c-0.681-0-1.243-0.512-1.323-1.171l-0.001-0.006-0.010-0.155v-8c0-2.947 2-6.667 4-6.667zM16 4c0.682 0 1.244 0.511 1.324 1.171l0.001 0.006 0.008 0.155v6.667c-0.001 2.472-1.682 4.551-3.963 5.156l-0.037 0.008v9.502c-0.002 0.734-0.598 1.328-1.333 1.328-0.68 0-1.241-0.509-1.323-1.167l-0.001-0.006-0.010-0.155v-9.502c-2.23-0.59-3.869-2.532-3.995-4.876l-0.001-0.013-0.005-0.275v-6.667c0.003-0.734 0.598-1.328 1.333-1.328 0.68 0 1.241 0.509 1.323 1.167l0.001 0.006 0.010 0.155v6.667c0.001 0.982 0.531 1.839 1.322 2.302l0.013 0.007v-8.976c0.002-0.734 0.598-1.328 1.333-1.328 0.68 0 1.241 0.509 1.323 1.167l0.001 0.006 0.010 0.155 0.002 8.976c0.738-0.432 1.245-1.191 1.322-2.073l0.001-0.010 0.010-0.226v-6.667c0-0.736 0.597-1.333 1.333-1.333v0z"></path>
</symbol>
<symbol id="icon-line" viewBox="0 0 32 32">
<path fill="none" stroke="#ef8964" style="stroke: var(--color2, #ef8964)" stroke-linejoin="round" stroke-linecap="round" stroke-miterlimit="4" stroke-width="0.3422" d="M22.527 10.267c-7.533 0.111-23.984 1.444-22.225 8.23 1.581 4.791 24.105 3.762 29.662 0.157s-2.075-7.357-12.713-6.028"></path>
</symbol>
<symbol id="icon-line-mobile" viewBox="0 0 32 32">
<path fill="none" stroke="#ef8964" style="stroke: var(--color2, #ef8964)" stroke-linejoin="round" stroke-linecap="round" stroke-miterlimit="4" stroke-width="0.64" d="M22.465 10.4c-7.462 0.108-23.758 1.411-22.016 8.039 1.566 4.68 23.878 3.675 29.383 0.153s-2.055-7.187-12.594-5.889"></path>
</symbol>
<symbol id="icon-logo-large-img" viewBox="0 0 32 32">
<path fill="#e6533c" style="fill: var(--color1, #e6533c)" d="M31.273 15.117c0.402 0 0.727 0.326 0.727 0.727v0 0.311c0 0.402-0.326 0.727-0.727 0.727v0h-0.831c-0.402 0-0.727 0.326-0.727 0.727v0 2.078c0 0.402-0.326 0.727-0.727 0.727v0h-0.831c-0.402 0-0.727 0.326-0.727 0.727v0 0.312c0 0.402-0.326 0.727-0.727 0.727v0h-1.974c-0.402 0-0.727-0.326-0.727-0.727v0-3.844c0-0.402-0.326-0.727-0.727-0.727v0h-14.545c-0.402 0-0.727 0.326-0.727 0.727v0 3.844c0 0.402-0.326 0.727-0.727 0.727v0h-1.974c-0.402 0-0.727-0.326-0.727-0.727v0-0.312c0-0.402-0.326-0.727-0.727-0.727v0h-0.831c-0.402 0-0.727-0.326-0.727-0.727v0-2.078c0-0.402-0.326-0.727-0.727-0.727v0h-0.831c-0.402 0-0.727-0.326-0.727-0.727v0-0.311c0-0.402 0.326-0.727 0.727-0.727v0h0.831c0.402 0 0.727-0.326 0.727-0.727v0-2.078c0-0.402 0.326-0.727 0.727-0.727v0h0.831c0.402 0 0.727-0.326 0.727-0.727v0-0.312c0-0.402 0.326-0.727 0.727-0.727v0h1.974c0.402 0 0.727 0.326 0.727 0.727v0 3.844c0 0.402 0.326 0.727 0.727 0.727v0h14.545c0.402 0 0.727-0.326 0.727-0.727v0-3.844c0-0.402 0.326-0.727 0.727-0.727v0h1.974c0.402 0 0.727 0.326 0.727 0.727v0 0.312c0 0.402 0.326 0.727 0.727 0.727v0h0.831c0.402 0 0.727 0.326 0.727 0.727v0 2.078c0 0.402 0.326 0.727 0.727 0.727v0h0.831z"></path>
</symbol>
<symbol id="icon-logo-large-text" viewBox="0 0 32 32">
<path fill="#efede8" style="fill: var(--color3, #efede8)" d="M0 18.262v-4.297h1.608c0.244 0 0.465 0.059 0.662 0.175 0.199 0.116 0.357 0.273 0.472 0.469s0.174 0.412 0.174 0.647c0 0.242-0.060 0.46-0.18 0.657-0.119 0.194-0.279 0.351-0.469 0.463l-0.006 0.003c-0.199 0.115-0.417 0.172-0.653 0.172h-0.823v1.709h-0.784zM0.784 15.803h0.74c0.002 0 0.005 0 0.008 0 0.219 0 0.41-0.117 0.515-0.292l0.002-0.003c0.056-0.090 0.083-0.19 0.083-0.3 0-0.113-0.028-0.214-0.083-0.304-0.106-0.178-0.298-0.295-0.517-0.295-0.003 0-0.005 0-0.008 0h-0.739v1.194zM4.699 18.341c-0.296 0-0.566-0.073-0.81-0.218-0.241-0.145-0.437-0.342-0.578-0.575l-0.004-0.008c-0.135-0.228-0.216-0.503-0.216-0.797 0-0.006 0-0.012 0-0.017v0.001c0-0.225 0.042-0.435 0.125-0.629 0.083-0.197 0.198-0.368 0.344-0.515 0.144-0.145 0.314-0.263 0.504-0.346l0.010-0.004c0.181-0.079 0.392-0.126 0.614-0.126 0.003 0 0.007 0 0.010 0h-0.001c0.296 0 0.565 0.073 0.807 0.218s0.439 0.342 0.578 0.579l0.004 0.008c0.146 0.245 0.219 0.517 0.219 0.816 0 0.223-0.042 0.432-0.125 0.626s-0.199 0.366-0.347 0.515c-0.146 0.147-0.316 0.263-0.511 0.347-0.18 0.079-0.39 0.126-0.611 0.126-0.005 0-0.009-0-0.014-0h0.001zM4.699 17.593c0.157 0 0.297-0.040 0.421-0.119s0.222-0.185 0.293-0.316c0.073-0.131 0.109-0.274 0.109-0.43 0-0.16-0.038-0.305-0.113-0.436-0.071-0.131-0.173-0.238-0.295-0.314l-0.004-0.002c-0.114-0.075-0.255-0.12-0.406-0.12-0.002 0-0.004 0-0.006 0h0c-0.003-0-0.006-0-0.009-0-0.152 0-0.293 0.045-0.412 0.122l0.003-0.002c-0.124 0.080-0.224 0.188-0.294 0.315l-0.002 0.005c-0.073 0.133-0.109 0.277-0.109 0.433-0 0.003-0 0.006-0 0.009 0 0.312 0.163 0.586 0.408 0.741l0.004 0.002c0.126 0.075 0.263 0.113 0.411 0.113zM8.316 18.262h-0.778l-1.074-3.069h0.768l0.698 1.986 0.695-1.986h0.775l0.695 1.986 0.698-1.986h0.768l-1.074 3.069h-0.778l-0.698-1.995-0.695 1.995zM13.327 18.341c-0.296 0-0.566-0.073-0.81-0.218-0.241-0.146-0.438-0.343-0.578-0.578l-0.004-0.008c-0.135-0.228-0.216-0.503-0.216-0.797 0-0.006 0-0.012 0-0.017v0.001c0-0.223 0.042-0.432 0.125-0.626 0.084-0.197 0.198-0.368 0.344-0.515 0.144-0.145 0.314-0.263 0.504-0.346l0.010-0.004c0.181-0.079 0.392-0.126 0.614-0.126 0.003 0 0.007 0 0.010 0h-0.001c0.251 0 0.48 0.051 0.688 0.153 0.21 0.1 0.388 0.238 0.534 0.414s0.252 0.377 0.318 0.602c0.066 0.225 0.081 0.46 0.045 0.706h-2.35c0.030 0.115 0.080 0.218 0.148 0.31 0.068 0.090 0.155 0.162 0.26 0.218 0.105 0.053 0.224 0.081 0.357 0.083 0.137 0.002 0.261-0.029 0.373-0.092 0.114-0.065 0.208-0.153 0.283-0.264l0.8 0.178c-0.135 0.276-0.334 0.502-0.579 0.665l-0.006 0.004c-0.259 0.172-0.55 0.258-0.871 0.258zM12.536 16.42h1.582c-0.024-0.127-0.078-0.239-0.152-0.333l0.001 0.002c-0.074-0.099-0.168-0.179-0.275-0.237l-0.004-0.002c-0.103-0.056-0.225-0.089-0.356-0.089-0.002 0-0.003 0-0.005 0h0c-0.129 0-0.247 0.030-0.357 0.089-0.22 0.116-0.379 0.321-0.433 0.565l-0.001 0.006zM15.439 18.262l-0.003-3.069h0.784l0.003 0.273c0.109-0.11 0.24-0.197 0.392-0.261 0.152-0.065 0.316-0.098 0.492-0.098 0.118 0 0.236 0.016 0.354 0.049l-0.308 0.755c-0.073-0.029-0.157-0.046-0.245-0.046h-0c-0.002-0-0.004-0-0.007-0-0.247 0-0.463 0.129-0.586 0.323l-0.002 0.003c-0.060 0.098-0.090 0.208-0.090 0.328v1.743h-0.785zM17.822 18.262v-4.297h1.608c0.244 0 0.465 0.059 0.662 0.175 0.199 0.116 0.357 0.273 0.473 0.469s0.174 0.412 0.174 0.647c0 0.242-0.060 0.46-0.18 0.657-0.119 0.194-0.279 0.351-0.47 0.463l-0.006 0.003c-0.199 0.115-0.417 0.172-0.652 0.172h-0.823v1.709h-0.784zM18.606 15.803h0.74c0.002 0 0.005 0 0.008 0 0.219 0 0.41-0.117 0.515-0.292l0.002-0.003c0.055-0.090 0.084-0.19 0.084-0.3 0-0.113-0.028-0.214-0.084-0.304-0.106-0.178-0.298-0.295-0.517-0.295-0.003 0-0.005 0-0.008 0h-0.739v1.194zM21.072 17.126v-1.933h0.784v1.737c0 0.121 0.031 0.231 0.094 0.332 0.062 0.098 0.144 0.177 0.247 0.236 0.105 0.057 0.22 0.086 0.344 0.086 0.129 0 0.245-0.029 0.347-0.086 0.103-0.059 0.185-0.138 0.248-0.236 0.062-0.1 0.093-0.211 0.093-0.332v-1.737h0.784l0.003 3.069h-0.784l-0.003-0.279c-0.111 0.109-0.242 0.198-0.387 0.261l-0.008 0.003c-0.152 0.064-0.315 0.095-0.489 0.095-0.004 0-0.009 0-0.014 0-0.23 0-0.445-0.060-0.632-0.166l0.006 0.003c-0.19-0.108-0.346-0.256-0.46-0.433l-0.003-0.005c-0.107-0.171-0.171-0.379-0.171-0.602 0-0.004 0-0.009 0-0.013v0.001zM24.679 18.262v-4.603h0.784v4.603h-0.784zM27.185 18.317c-0.177-0.011-0.343-0.045-0.498-0.099l0.013 0.004c-0.158-0.056-0.294-0.132-0.415-0.226l0.003 0.002c-0.116-0.090-0.209-0.203-0.274-0.332l-0.003-0.006 0.662-0.27c0.026 0.041 0.067 0.085 0.125 0.132 0.058 0.045 0.126 0.083 0.206 0.114 0.081 0.031 0.17 0.046 0.267 0.046 0.082 0 0.159-0.010 0.232-0.030 0.075-0.023 0.135-0.057 0.18-0.101 0.044-0.042 0.071-0.101 0.071-0.167 0-0.003-0-0.006-0-0.008v0c0-0.003 0-0.006 0-0.010 0-0.067-0.033-0.127-0.083-0.164l-0.001-0c-0.058-0.045-0.127-0.078-0.202-0.095l-0.003-0.001c-0.082-0.023-0.161-0.043-0.238-0.061-0.214-0.041-0.405-0.103-0.584-0.187l0.015 0.006c-0.167-0.076-0.307-0.183-0.42-0.314l-0.001-0.002c-0.105-0.131-0.157-0.289-0.157-0.473 0-0.203 0.055-0.378 0.167-0.525 0.115-0.147 0.263-0.263 0.433-0.338l0.007-0.003c0.182-0.080 0.379-0.12 0.588-0.12 0.255 0 0.489 0.052 0.701 0.154 0.214 0.1 0.384 0.242 0.508 0.427l-0.62 0.35c-0.034-0.053-0.075-0.098-0.124-0.134l-0.001-0.001c-0.053-0.043-0.115-0.078-0.183-0.104-0.063-0.027-0.137-0.045-0.214-0.049l-0.002-0c-0.096-0.004-0.184 0.004-0.263 0.025-0.076 0.018-0.141 0.054-0.193 0.104l0-0c-0.044 0.048-0.071 0.112-0.071 0.183 0 0.005 0 0.010 0 0.015l-0-0.001c0 0.078 0.032 0.136 0.096 0.175 0.064 0.037 0.142 0.066 0.231 0.086 0.093 0.020 0.18 0.043 0.264 0.067 0.189 0.059 0.366 0.132 0.531 0.218 0.167 0.086 0.301 0.191 0.402 0.316s0.149 0.274 0.144 0.448c0 0.199-0.062 0.372-0.187 0.522-0.124 0.148-0.285 0.26-0.482 0.338-0.195 0.078-0.404 0.108-0.627 0.092zM30.396 18.341c-0.296 0-0.566-0.073-0.811-0.218-0.241-0.146-0.437-0.343-0.577-0.578l-0.004-0.008c-0.136-0.228-0.216-0.504-0.216-0.798 0-0.006 0-0.011 0-0.017v0.001c0-0.223 0.042-0.432 0.125-0.626 0.084-0.197 0.198-0.368 0.344-0.515 0.144-0.145 0.314-0.263 0.504-0.346l0.010-0.004c0.181-0.079 0.392-0.126 0.614-0.126 0.004 0 0.007 0 0.011 0h-0.001c0.251 0 0.48 0.051 0.688 0.153 0.21 0.1 0.388 0.238 0.533 0.414s0.252 0.377 0.318 0.602c0.066 0.225 0.082 0.46 0.045 0.706h-2.35c0.030 0.115 0.079 0.218 0.148 0.31 0.068 0.090 0.155 0.162 0.26 0.218 0.105 0.053 0.224 0.081 0.357 0.083 0.137 0.002 0.261-0.029 0.373-0.092 0.114-0.065 0.208-0.153 0.283-0.264l0.801 0.178c-0.135 0.276-0.334 0.502-0.579 0.665l-0.006 0.004c-0.259 0.172-0.549 0.258-0.871 0.258zM29.605 16.42h1.582c-0.024-0.127-0.078-0.239-0.152-0.333l0.001 0.002c-0.074-0.099-0.168-0.179-0.275-0.237l-0.004-0.002c-0.103-0.056-0.225-0.089-0.356-0.089-0.002 0-0.003 0-0.005 0h0c-0.129 0-0.248 0.030-0.357 0.089-0.219 0.117-0.379 0.321-0.433 0.565l-0.001 0.006z"></path>
</symbol>
<symbol id="icon-logo-small-img" viewBox="0 0 32 32">
<path fill="#e6533c" style="fill: var(--color1, #e6533c)" d="M31.174 15.174c0.456 0 0.826 0.37 0.826 0.826s-0.37 0.826-0.826 0.826v0h-0.571c-0.491 0-0.889 0.398-0.889 0.889v0 1.524c0 0.491-0.398 0.889-0.889 0.889v0h-0.572c-0.456 0-0.825 0.369-0.826 0.825v0c0 0.456-0.369 0.825-0.825 0.826h-1.715c-0.491 0-0.889-0.398-0.889-0.889v0-3.174c0-0.491-0.398-0.889-0.889-0.889v0h-14.222c-0.491 0-0.889 0.398-0.889 0.889v0 3.174c0 0.491-0.398 0.889-0.889 0.889v0h-1.715c-0.456-0-0.825-0.37-0.825-0.826 0 0 0 0 0 0v0c-0-0.456-0.37-0.825-0.826-0.825 0 0 0 0 0 0h-0.572c-0.491 0-0.889-0.398-0.889-0.889v0-1.524c0-0.491-0.398-0.889-0.889-0.889v0h-0.57c-0.456 0-0.826-0.37-0.826-0.826s0.37-0.826 0.826-0.826v0h0.571c0.491 0 0.889-0.398 0.889-0.889v0-1.524c0-0.491 0.398-0.889 0.889-0.889v0h0.572c0.455-0.001 0.824-0.369 0.825-0.824v-0c0-0.456 0.37-0.826 0.825-0.826h1.715c0.491 0 0.889 0.398 0.889 0.889v0 3.174c0 0.491 0.398 0.889 0.889 0.889v0h14.222c0.491 0 0.889-0.398 0.889-0.889v0-3.175c0-0.491 0.398-0.889 0.889-0.889v0h1.715c0.455 0 0.825 0.37 0.825 0.826s0.37 0.825 0.826 0.825h0.572c0.491 0 0.889 0.398 0.889 0.889v0 1.524c0 0.491 0.398 0.889 0.889 0.889v0h0.571z"></path>
</symbol>
<symbol id="icon-logo-small-text" viewBox="0 0 32 32">
<path fill="#efede8" style="fill: var(--color3, #efede8)" d="M0 18.262v-4.297h1.608c0.244 0 0.465 0.059 0.662 0.175 0.199 0.116 0.357 0.273 0.472 0.469s0.174 0.412 0.174 0.647c0 0.242-0.060 0.46-0.18 0.657-0.119 0.194-0.279 0.351-0.469 0.463l-0.006 0.003c-0.199 0.115-0.417 0.172-0.653 0.172h-0.823v1.709h-0.784zM0.784 15.803h0.74c0.002 0 0.005 0 0.008 0 0.219 0 0.41-0.117 0.515-0.292l0.002-0.003c0.056-0.090 0.083-0.19 0.083-0.3 0-0.113-0.028-0.214-0.083-0.304-0.106-0.178-0.298-0.295-0.517-0.295-0.003 0-0.005 0-0.008 0h-0.739v1.194zM4.699 18.341c-0.296 0-0.566-0.073-0.81-0.218-0.241-0.145-0.437-0.342-0.578-0.575l-0.004-0.008c-0.135-0.228-0.216-0.503-0.216-0.797 0-0.006 0-0.012 0-0.017v0.001c0-0.225 0.042-0.435 0.125-0.629 0.083-0.197 0.198-0.368 0.344-0.515 0.144-0.145 0.314-0.263 0.504-0.346l0.010-0.004c0.181-0.079 0.392-0.126 0.614-0.126 0.003 0 0.007 0 0.010 0h-0.001c0.296 0 0.565 0.073 0.807 0.218s0.439 0.342 0.578 0.579l0.004 0.008c0.146 0.245 0.219 0.517 0.219 0.816 0 0.223-0.042 0.432-0.125 0.626s-0.199 0.366-0.347 0.515c-0.146 0.147-0.316 0.263-0.511 0.347-0.18 0.079-0.39 0.126-0.611 0.126-0.005 0-0.009-0-0.014-0h0.001zM4.699 17.593c0.157 0 0.297-0.040 0.421-0.119s0.222-0.185 0.293-0.316c0.073-0.131 0.109-0.274 0.109-0.43 0-0.16-0.038-0.305-0.113-0.436-0.071-0.131-0.173-0.238-0.295-0.314l-0.004-0.002c-0.114-0.075-0.255-0.12-0.406-0.12-0.002 0-0.004 0-0.006 0h0c-0.003-0-0.006-0-0.009-0-0.152 0-0.293 0.045-0.412 0.122l0.003-0.002c-0.124 0.080-0.224 0.188-0.294 0.315l-0.002 0.005c-0.073 0.133-0.109 0.277-0.109 0.433-0 0.003-0 0.006-0 0.009 0 0.312 0.163 0.586 0.408 0.741l0.004 0.002c0.126 0.075 0.263 0.113 0.411 0.113zM8.316 18.262h-0.778l-1.074-3.069h0.768l0.698 1.986 0.695-1.986h0.775l0.695 1.986 0.698-1.986h0.768l-1.074 3.069h-0.778l-0.698-1.995-0.695 1.995zM13.327 18.341c-0.296 0-0.566-0.073-0.81-0.218-0.241-0.146-0.438-0.343-0.578-0.578l-0.004-0.008c-0.135-0.228-0.216-0.503-0.216-0.797 0-0.006 0-0.012 0-0.017v0.001c0-0.223 0.042-0.432 0.125-0.626 0.084-0.197 0.198-0.368 0.344-0.515 0.144-0.145 0.314-0.263 0.504-0.346l0.010-0.004c0.181-0.079 0.392-0.126 0.614-0.126 0.003 0 0.007 0 0.010 0h-0.001c0.251 0 0.48 0.051 0.688 0.153 0.21 0.1 0.388 0.238 0.534 0.414s0.252 0.377 0.318 0.602c0.066 0.225 0.081 0.46 0.045 0.706h-2.35c0.030 0.115 0.080 0.218 0.148 0.31 0.068 0.090 0.155 0.162 0.26 0.218 0.105 0.053 0.224 0.081 0.357 0.083 0.137 0.002 0.261-0.029 0.373-0.092 0.114-0.065 0.208-0.153 0.283-0.264l0.8 0.178c-0.135 0.276-0.334 0.502-0.579 0.665l-0.006 0.004c-0.259 0.172-0.55 0.258-0.871 0.258zM12.536 16.42h1.582c-0.024-0.127-0.078-0.239-0.152-0.333l0.001 0.002c-0.074-0.099-0.168-0.179-0.275-0.237l-0.004-0.002c-0.103-0.056-0.225-0.089-0.356-0.089-0.002 0-0.003 0-0.005 0h0c-0.129 0-0.247 0.030-0.357 0.089-0.22 0.116-0.379 0.321-0.433 0.565l-0.001 0.006zM15.439 18.262l-0.003-3.069h0.784l0.003 0.273c0.109-0.11 0.24-0.197 0.392-0.261 0.152-0.065 0.316-0.098 0.492-0.098 0.118 0 0.236 0.016 0.354 0.049l-0.308 0.755c-0.073-0.029-0.157-0.046-0.245-0.046h-0c-0.002-0-0.004-0-0.007-0-0.247 0-0.463 0.129-0.586 0.323l-0.002 0.003c-0.060 0.098-0.090 0.208-0.090 0.328v1.743h-0.785zM17.822 18.262v-4.297h1.608c0.244 0 0.465 0.059 0.662 0.175 0.199 0.116 0.357 0.273 0.473 0.469s0.174 0.412 0.174 0.647c0 0.242-0.060 0.46-0.18 0.657-0.119 0.194-0.279 0.351-0.47 0.463l-0.006 0.003c-0.199 0.115-0.417 0.172-0.652 0.172h-0.823v1.709h-0.784zM18.606 15.803h0.74c0.002 0 0.005 0 0.008 0 0.219 0 0.41-0.117 0.515-0.292l0.002-0.003c0.055-0.090 0.084-0.19 0.084-0.3 0-0.113-0.028-0.214-0.084-0.304-0.106-0.178-0.298-0.295-0.517-0.295-0.003 0-0.005 0-0.008 0h-0.739v1.194zM21.072 17.126v-1.933h0.784v1.737c0 0.121 0.031 0.231 0.094 0.332 0.062 0.098 0.144 0.177 0.247 0.236 0.105 0.057 0.22 0.086 0.344 0.086 0.129 0 0.245-0.029 0.347-0.086 0.103-0.059 0.185-0.138 0.248-0.236 0.062-0.1 0.093-0.211 0.093-0.332v-1.737h0.784l0.003 3.069h-0.784l-0.003-0.279c-0.111 0.109-0.242 0.198-0.387 0.261l-0.008 0.003c-0.152 0.064-0.315 0.095-0.489 0.095-0.004 0-0.009 0-0.014 0-0.23 0-0.445-0.060-0.632-0.166l0.006 0.003c-0.19-0.108-0.346-0.256-0.46-0.433l-0.003-0.005c-0.107-0.171-0.171-0.379-0.171-0.602 0-0.004 0-0.009 0-0.013v0.001zM24.679 18.262v-4.603h0.784v4.603h-0.784zM27.185 18.317c-0.177-0.011-0.343-0.045-0.498-0.099l0.013 0.004c-0.158-0.056-0.294-0.132-0.415-0.226l0.003 0.002c-0.116-0.090-0.209-0.203-0.274-0.332l-0.003-0.006 0.662-0.27c0.026 0.041 0.067 0.085 0.125 0.132 0.058 0.045 0.126 0.083 0.206 0.114 0.081 0.031 0.17 0.046 0.267 0.046 0.082 0 0.159-0.010 0.232-0.030 0.075-0.023 0.135-0.057 0.18-0.101 0.044-0.042 0.071-0.101 0.071-0.167 0-0.003-0-0.006-0-0.008v0c0-0.003 0-0.006 0-0.010 0-0.067-0.033-0.127-0.083-0.164l-0.001-0c-0.058-0.045-0.127-0.078-0.202-0.095l-0.003-0.001c-0.082-0.023-0.161-0.043-0.238-0.061-0.214-0.041-0.405-0.103-0.584-0.187l0.015 0.006c-0.167-0.076-0.307-0.183-0.42-0.314l-0.001-0.002c-0.105-0.131-0.157-0.289-0.157-0.473 0-0.203 0.055-0.378 0.167-0.525 0.115-0.147 0.263-0.263 0.433-0.338l0.007-0.003c0.182-0.080 0.379-0.12 0.588-0.12 0.255 0 0.489 0.052 0.701 0.154 0.214 0.1 0.384 0.242 0.508 0.427l-0.62 0.35c-0.034-0.053-0.075-0.098-0.124-0.134l-0.001-0.001c-0.053-0.043-0.115-0.078-0.183-0.104-0.063-0.027-0.137-0.045-0.214-0.049l-0.002-0c-0.096-0.004-0.184 0.004-0.263 0.025-0.076 0.018-0.141 0.054-0.193 0.104l0-0c-0.044 0.048-0.071 0.112-0.071 0.183 0 0.005 0 0.010 0 0.015l-0-0.001c0 0.078 0.032 0.136 0.096 0.175 0.064 0.037 0.142 0.066 0.231 0.086 0.093 0.020 0.18 0.043 0.264 0.067 0.189 0.059 0.366 0.132 0.531 0.218 0.167 0.086 0.301 0.191 0.402 0.316s0.149 0.274 0.144 0.448c0 0.199-0.062 0.372-0.187 0.522-0.124 0.148-0.285 0.26-0.482 0.338-0.195 0.078-0.404 0.108-0.627 0.092zM30.396 18.341c-0.296 0-0.566-0.073-0.811-0.218-0.241-0.146-0.437-0.343-0.577-0.578l-0.004-0.008c-0.136-0.228-0.216-0.504-0.216-0.798 0-0.006 0-0.011 0-0.017v0.001c0-0.223 0.042-0.432 0.125-0.626 0.084-0.197 0.198-0.368 0.344-0.515 0.144-0.145 0.314-0.263 0.504-0.346l0.010-0.004c0.181-0.079 0.392-0.126 0.614-0.126 0.004 0 0.007 0 0.011 0h-0.001c0.251 0 0.48 0.051 0.688 0.153 0.21 0.1 0.388 0.238 0.533 0.414s0.252 0.377 0.318 0.602c0.066 0.225 0.082 0.46 0.045 0.706h-2.35c0.030 0.115 0.079 0.218 0.148 0.31 0.068 0.090 0.155 0.162 0.26 0.218 0.105 0.053 0.224 0.081 0.357 0.083 0.137 0.002 0.261-0.029 0.373-0.092 0.114-0.065 0.208-0.153 0.283-0.264l0.801 0.178c-0.135 0.276-0.334 0.502-0.579 0.665l-0.006 0.004c-0.259 0.172-0.549 0.258-0.871 0.258zM29.605 16.42h1.582c-0.024-0.127-0.078-0.239-0.152-0.333l0.001 0.002c-0.074-0.099-0.168-0.179-0.275-0.237l-0.004-0.002c-0.103-0.056-0.225-0.089-0.356-0.089-0.002 0-0.003 0-0.005 0h0c-0.129 0-0.248 0.030-0.357 0.089-0.219 0.117-0.379 0.321-0.433 0.565l-0.001 0.006z"></path>
</symbol>
<symbol id="icon-log-out" viewBox="0 0 32 32">
<path fill="none" stroke="#e6533c" style="stroke: var(--color1, #e6533c)" stroke-linejoin="round" stroke-linecap="round" stroke-miterlimit="4" stroke-width="2.4" d="M12 4h-1.6c-2.24 0-3.36 0-4.216 0.435-0.756 0.391-1.358 0.992-1.738 1.727l-0.011 0.022c-0.435 0.856-0.435 1.976-0.435 4.216v11.2c0 2.24 0 3.36 0.435 4.216 0.391 0.756 0.992 1.357 1.726 1.737l0.022 0.011c0.856 0.437 1.976 0.437 4.216 0.437h1.6M21.333 22.667l6.667-6.667M28 16l-6.667-6.667M28 16h-16"></path>
</symbol>
<symbol id="icon-log-out-white" viewBox="0 0 32 32">
<path fill="none" stroke="#efede8" style="stroke: var(--color3, #efede8)" stroke-linejoin="round" stroke-linecap="round" stroke-miterlimit="4" stroke-width="2.4" d="M12 4h-1.6c-2.24 0-3.36 0-4.216 0.435-0.756 0.391-1.358 0.992-1.738 1.727l-0.011 0.022c-0.435 0.856-0.435 1.976-0.435 4.216v11.2c0 2.24 0 3.36 0.435 4.216 0.391 0.756 0.992 1.357 1.726 1.737l0.022 0.011c0.856 0.437 1.976 0.437 4.216 0.437h1.6M21.333 22.667l6.667-6.667M28 16l-6.667-6.667M28 16h-16"></path>
</symbol>
<symbol id="icon-pause-square" viewBox="0 0 32 32">
<path fill="#e6533c" style="fill: var(--color1, #e6533c); stroke: var(--color1, #e6533c)" stroke="#e6533c" stroke-linejoin="round" stroke-linecap="round" stroke-miterlimit="4" stroke-width="1" d="M4 10.4c0-2.24 0-3.36 0.436-4.216 0.391-0.756 0.992-1.357 1.726-1.737l0.022-0.011c0.856-0.436 1.976-0.436 4.216-0.436h11.2c2.24 0 3.36 0 4.216 0.436 0.756 0.391 1.357 0.992 1.738 1.726l0.011 0.022c0.436 0.856 0.436 1.976 0.436 4.216v11.2c0 2.24 0 3.36-0.436 4.216-0.391 0.756-0.992 1.357-1.726 1.738l-0.022 0.011c-0.856 0.436-1.976 0.436-4.216 0.436h-11.2c-2.24 0-3.36 0-4.216-0.436-0.756-0.391-1.357-0.992-1.737-1.726l-0.011-0.022c-0.436-0.856-0.436-1.976-0.436-4.216v-11.2z"></path>
<path fill="none" stroke="#efede8" style="stroke: var(--color3, #efede8)" stroke-linejoin="round" stroke-linecap="round" stroke-miterlimit="4" stroke-width="1.3" d="M12.666 20v-8M19.333 20v-8"></path>
</symbol>
<symbol id="icon-play" viewBox="0 0 24 24">
<path fill="#e6533c" style="fill: var(--color1, #e6533c); stroke: var(--color1, #e6533c)" stroke="#e6533c" stroke-linejoin="round" stroke-linecap="round" stroke-miterlimit="4" stroke-width="0.75" d="M3 7.8c0-1.68 0-2.52 0.327-3.162 0.288-0.564 0.747-1.023 1.311-1.311 0.642-0.327 1.482-0.327 3.162-0.327h8.4c1.68 0 2.52 0 3.162 0.327 0.564 0.288 1.023 0.747 1.311 1.311 0.327 0.642 0.327 1.482 0.327 3.162v8.4c0 1.68 0 2.52-0.327 3.162-0.288 0.564-0.747 1.023-1.311 1.311-0.642 0.327-1.482 0.327-3.162 0.327h-8.4c-1.68 0-2.52 0-3.162-0.327-0.564-0.288-1.023-0.747-1.311-1.311-0.327-0.642-0.327-1.482-0.327-3.162v-8.4z"></path>
<path fill="#efede8" style="fill: var(--color2, #efede8); stroke: var(--color2, #efede8)" stroke="#efede8" stroke-linejoin="round" stroke-linecap="round" stroke-miterlimit="4" stroke-width="0.975" d="M8.938 8.063l6.125 3.938-6.125 3.938v-7.875z"></path>
</symbol>
<symbol id="icon-runn   ing-figure" viewBox="0 0 32 32">
<path fill="none" style="fill: var(--color2, #ef8964)" d="M29.648 9.451c-0.219-0.26-0.545-0.424-0.909-0.424-0.29 0-0.556 0.104-0.762 0.277l0.002-0.002-3.28 2.757-1.51-3.739c-0.056-0.14-0.134-0.261-0.229-0.364l0.001 0.001c-0.321-0.716-0.875-1.281-1.563-1.608l-0.019-0.008c-0.32-0.146-0.651-0.224-0.982-0.262-0.072-0.038-0.139-0.088-0.222-0.114l-5.776-1.61c-0.093-0.026-0.199-0.041-0.31-0.041-0.223 0-0.432 0.062-0.611 0.169l0.005-0.003c-0.33 0.108-0.59 0.352-0.717 0.664l-0.003 0.008-2.174 5.592c-0.050 0.127-0.079 0.273-0.079 0.427 0 0.501 0.31 0.929 0.748 1.103l0.008 0.003c0.126 0.050 0.272 0.079 0.425 0.079 0.5 0 0.928-0.31 1.103-0.748l0.003-0.008 1.837-4.723 2.63 0.731c-0.064 0.104-0.133 0.202-0.186 0.312l-3.371 7.312c-0.048 0.107-0.075 0.216-0.11 0.326l-4.098 6.87-6.859 2.294c-0.42 0.323-0.687 0.826-0.687 1.391 0 0.968 0.784 1.752 1.752 1.752 0.381 0 0.733-0.122 1.021-0.328l-0.005 0.004 7.019-2.416c0.216-0.157 0.371-0.362 0.49-0.581 0.088-0.094 0.189-0.168 0.256-0.285l2.443-4.096 4.336 3.696-4.64 5.229c-0.273 0.307-0.439 0.714-0.439 1.16 0 0.967 0.784 1.751 1.751 1.751 0.521 0 0.99-0.228 1.31-0.589l0.002-0.002 5.79-6.523c0.179-0.202 0.288-0.432 0.36-0.675 0.043-0.133 0.043-0.269 0.053-0.406 0-0.069 0.027-0.131 0.021-0.195-0.009-0.509-0.239-0.963-0.598-1.272l-0.002-0.002-3.992-3.403c0.288-0.274 0.533-0.6 0.709-0.982l2.586-5.6 0.829 2.208c0.031 0.211 0.116 0.398 0.242 0.551l-0.002-0.002c0.121 0.138 0.273 0.247 0.445 0.314l0.008 0.003c0.018 0.008 0.038 0.010 0.059 0.016 0.096 0.040 0.208 0.069 0.325 0.080l0.005 0c0.024 0.002 0.052 0.003 0.081 0.003 0.116 0 0.227-0.017 0.332-0.050l-0.008 0.002h0.005c0.037-0.010 0.074-0.003 0.11-0.019 0.186-0.076 0.343-0.192 0.464-0.337l0.002-0.002 4.71-3.997c0.501-0.422 0.288-1.168-0.133-1.667zM23.69 6.602c1.823 0 3.301-1.478 3.301-3.301s-1.478-3.301-3.301-3.301v0c-1.823 0-3.301 1.478-3.301 3.301s1.478 3.301 3.301 3.301v0z"></path>
</symbol>
<symbol id="icon-search-loop" viewBox="0 0 32 32">
<path fill="none" stroke="#efede8" style="stroke: var(--color3, #efede8)" stroke-linejoin="round" stroke-linecap="round" stroke-miterlimit="4" stroke-width="2.6667" d="M14.667 25.333c5.891 0 10.667-4.776 10.667-10.667s-4.776-10.667-10.667-10.667v0c-5.891 0-10.667 4.776-10.667 10.667s4.776 10.667 10.667 10.667v0zM28 28l-5.799-5.799"></path>
</symbol>
<symbol id="icon-settings" viewBox="0 0 32 32">
<path fill="none" stroke="#efede8" style="stroke: var(--color3, #efede8)" stroke-linejoin="round" stroke-linecap="round" stroke-miterlimit="4" stroke-width="2.2857" d="M16 20c2.209 0 4-1.791 4-4s-1.791-4-4-4v0c-2.209 0-4 1.791-4 4s1.791 4 4 4v0z"></path>
<path fill="none" stroke="#efede8" style="stroke: var(--color3, #efede8)" stroke-linejoin="round" stroke-linecap="round" stroke-miterlimit="4" stroke-width="2.2857" d="M24.97 19.637c-0.107 0.238-0.17 0.515-0.17 0.807 0 0.544 0.217 1.038 0.57 1.399l-0-0 0.072 0.073c0.439 0.439 0.711 1.045 0.711 1.715s-0.272 1.276-0.711 1.715l-0 0c-0.439 0.439-1.045 0.711-1.715 0.711s-1.276-0.272-1.715-0.711l-0-0-0.073-0.072c-0.36-0.353-0.854-0.57-1.398-0.57-0.292 0-0.57 0.063-0.82 0.175l0.013-0.005c-0.716 0.313-1.208 1.013-1.211 1.829v0.206c0 1.339-1.086 2.425-2.425 2.425s-2.425-1.086-2.425-2.425v0-0.109c-0.021-0.838-0.553-1.546-1.296-1.825l-0.014-0.005c-0.238-0.108-0.515-0.17-0.807-0.17-0.544 0-1.038 0.218-1.399 0.571l0-0-0.073 0.072c-0.439 0.439-1.045 0.71-1.715 0.71-1.339 0-2.425-1.086-2.425-2.425 0-0.67 0.271-1.276 0.71-1.715l0.073-0.073c0.353-0.36 0.57-0.854 0.57-1.398 0-0.292-0.063-0.57-0.175-0.82l0.005 0.013c-0.313-0.716-1.014-1.208-1.83-1.211h-0.206c-1.339 0-2.425-1.086-2.425-2.425s1.086-2.425 2.425-2.425v0h0.109c0.838-0.020 1.547-0.553 1.826-1.296l0.005-0.014c0.108-0.238 0.17-0.515 0.17-0.807 0-0.544-0.218-1.038-0.571-1.399l-0.073-0.073c-0.439-0.439-0.71-1.045-0.71-1.715 0-1.34 1.086-2.426 2.426-2.426 0.67 0 1.276 0.272 1.715 0.711l0.072 0.072c0.36 0.353 0.854 0.57 1.398 0.57 0.292 0 0.57-0.063 0.82-0.175l-0.013 0.005h0.097c0.716-0.313 1.209-1.013 1.213-1.829v-0.206c0-1.339 1.085-2.424 2.424-2.424s2.424 1.085 2.424 2.424v0 0.109c0.003 0.817 0.496 1.518 1.2 1.826l0.013 0.005c0.238 0.108 0.515 0.17 0.807 0.17 0.544 0 1.038-0.218 1.399-0.571l0.073-0.073c0.439-0.439 1.045-0.71 1.715-0.71 1.339 0 2.425 1.086 2.425 2.425 0 0.67-0.271 1.276-0.71 1.715v0l-0.072 0.073c-0.353 0.36-0.57 0.854-0.57 1.398 0 0.292 0.063 0.57 0.175 0.82l-0.005-0.013v0.097c0.313 0.716 1.013 1.208 1.829 1.211h0.206c1.339 0 2.425 1.086 2.425 2.425s-1.086 2.425-2.425 2.425v0h-0.109c-0.816 0.003-1.517 0.495-1.825 1.199l-0.005 0.013z"></path>
</symbol>
<symbol id="icon-exclamation-mark" viewBox="0 0 32 32">
<path fill="#efa082" style="fill: var(--color1, #efa082)" d="M32 16c0 8.837-7.163 16-16 16s-16-7.163-16-16c0-8.837 7.163-16 16-16s16 7.163 16 16z"></path>
<path fill="none" stroke="#efede8" style="stroke: var(--color2, #efede8)" stroke-linejoin="round" stroke-linecap="round" stroke-miterlimit="4" stroke-width="2.6667" d="M16 25.333v0.013M16 20v-13.333"></path>
</symbol>
<symbol id="icon-trash" viewBox="0 0 32 32">
<path fill="none" stroke="#ef8964" style="stroke: var(--color2, #ef8964)" stroke-linejoin="round" stroke-linecap="round" stroke-miterlimit="4" stroke-width="2.4" d="M12 4h8M13.333 14v6.667M18.667 14v6.667M4 8h24M25.333 8l-0.934 14.026c-0.141 2.104-0.211 3.157-0.666 3.955-0.405 0.703-0.997 1.258-1.708 1.609l-0.023 0.010c-0.826 0.4-1.88 0.4-3.989 0.4h-4.026c-2.109 0-3.163 0-3.989-0.4-0.734-0.361-1.326-0.917-1.721-1.6l-0.010-0.019c-0.454-0.8-0.525-1.851-0.666-3.955l-0.934-14.026"></path>
</symbol>
<symbol id="icon-x" viewBox="0 0 32 32">
<path fill="none" stroke="#efede8" style="stroke: var(--color3, #efede8)" stroke-linejoin="round" stroke-linecap="round" stroke-miterlimit="4" stroke-width="2.4615" d="M24 8l-16 16M8 8l16 16"></path>
</symbol>
<symbol id="icon-x-orange" viewBox="0 0 32 32">
<path fill="none" stroke="#e6533c" style="stroke: var(--color1, #e6533c)" stroke-linejoin="round" stroke-linecap="round" stroke-miterlimit="4" stroke-width="3.5556" d="M24 8l-16 16M8 8l16 16"></path>
</symbol>

<symbol id="icon-running-stick-figure-svgrepo-com-1" viewBox="0 0 32 32">
<path d="M29.647 9.451c-0.419-0.501-1.166-0.567-1.667-0.149l-3.282 2.757-1.509-3.739c-0.054-0.14-0.135-0.258-0.229-0.362-0.308-0.686-0.844-1.275-1.582-1.617-0.32-0.146-0.652-0.224-0.982-0.262-0.073-0.038-0.139-0.088-0.222-0.114l-5.775-1.61c-0.324-0.088-0.65-0.031-0.917 0.125-0.317 0.107-0.589 0.338-0.719 0.672l-2.175 5.592c-0.236 0.608 0.066 1.294 0.676 1.534 0.607 0.236 1.294-0.068 1.532-0.678l1.837-4.722 2.63 0.731c-0.064 0.104-0.133 0.201-0.185 0.312l-3.372 7.309c-0.049 0.107-0.075 0.217-0.109 0.328l-4.098 6.871-6.859 2.294c-0.776 0.58-0.941 1.674-0.367 2.45 0.577 0.778 1.674 0.943 2.448 0.369l7.018-2.417c0.215-0.156 0.371-0.36 0.489-0.58 0.088-0.094 0.189-0.168 0.256-0.284l2.443-4.096 4.337 3.696-4.641 5.23c-0.639 0.721-0.575 1.832 0.149 2.469 0.723 0.643 1.83 0.575 2.473-0.149l5.791-6.524c0.18-0.201 0.288-0.433 0.36-0.676 0.043-0.132 0.043-0.269 0.054-0.406 0-0.069 0.026-0.132 0.021-0.196-0.016-0.478-0.21-0.943-0.601-1.274l-3.991-3.403c0.288-0.274 0.532-0.6 0.709-0.983l2.585-5.599 0.828 2.206c0.035 0.196 0.1 0.388 0.239 0.549 0.125 0.149 0.284 0.248 0.454 0.317 0.017 0.009 0.038 0.010 0.059 0.016 0.107 0.038 0.216 0.075 0.329 0.080 0.133 0.012 0.269-0.005 0.405-0.043 0.004-0.002 0.005-0.002 0.005-0.002 0.036-0.009 0.073-0.002 0.109-0.017 0.192-0.073 0.34-0.196 0.466-0.34l4.71-3.998c0.501-0.421 0.289-1.166-0.132-1.667z"></path>
<path d="M23.689 6.602c1.823 0 3.301-1.478 3.301-3.301s-1.478-3.301-3.301-3.301c-1.823 0-3.301 1.478-3.301 3.301s1.478 3.301 3.301 3.301z"></path>
</symbol>

</defs>
</svg>
