<svg xmlns="http://www.w3.org/2000/svg" aria-hidden="true" style="position:absolute;width:0;height:0;overflow:hidden"><defs><symbol id="icon-busketopt" viewBox="0 0 32 32"><path fill="none" stroke="#ef8964" stroke-linecap="round" stroke-linejoin="round" stroke-width="2.4" d="M12 4h8m-6.667 10v6.667M18.667 14v6.667M4 8h24m-2.667 0-.934 14.026c-.141 2.104-.211 3.157-.666 3.955a4.026 4.026 0 0 1-1.708 1.609l-.023.01c-.826.4-1.88.4-3.989.4h-4.026c-2.109 0-3.163 0-3.989-.4A4.031 4.031 0 0 1 8.277 26l-.01-.019c-.454-.8-.525-1.851-.666-3.955L6.667 8" style="stroke:var(--color1, #ef8964)"/></symbol><symbol id="icon-foodopt" viewBox="0 0 32 32"><path fill="#ef8964" d="M24 4c.682 0 1.244.511 1.324 1.171l.001.006.01.155v21.334a1.334 1.334 0 0 1-2.657.162l-.001-.007-.01-.155v-6.667H21.333a1.333 1.333 0 0 1-1.323-1.171l-.001-.006-.01-.155v-8c0-2.947 2-6.667 4-6.667zm-8 0c.682 0 1.244.511 1.324 1.171l.001.006.01.155v6.667a5.338 5.338 0 0 1-3.963 5.156l-.037.008v9.512a1.333 1.333 0 0 1-2.657.152l-.001-.006-.01-.155v-9.502c-2.229-.59-3.867-2.532-3.993-4.876l-.001-.013L6.667 12V5.333a1.333 1.333 0 0 1 2.656-.161l.001.006.011.155V12c0 .981.531 1.839 1.32 2.302l.013.007V5.333a1.332 1.332 0 0 1 2.656-.161l.001.006.011.155v8.976a2.67 2.67 0 0 0 1.322-2.073l.001-.01.01-.226V5.333c0-.736.597-1.333 1.333-1.333z" style="fill:var(--color1, #ef8964)"/></symbol><symbol id="icon-dumbbellopt" viewBox="0 0 32 32"><path fill="#ef8964" d="M5.2 8H2.797C2.136 8 1.6 8.536 1.6 9.197V14.4H.4a.4.4 0 0 0-.4.4v2.4c0 .219.181.4.4.4h1.2v5.2c0 .666.534 1.2 1.2 1.2h2.4c.666 0 1.2-.534 1.2-1.2V9.197C6.4 8.536 5.864 8 5.203 8H5.2zm26.4 6.4h-1.2V9.197C30.4 8.536 29.864 8 29.203 8h-2.406c-.661 0-1.197.536-1.197 1.197V22.8c0 .666.534 1.2 1.2 1.2h2.4c.666 0 1.2-.534 1.2-1.2v-5.2h1.2a.4.4 0 0 0 .4-.4v-2.4a.4.4 0 0 0-.4-.4zm-8.8-9.6h-2.403c-.661 0-1.197.536-1.197 1.197V14.4h-6.4V5.997c0-.661-.536-1.197-1.197-1.197H9.197C8.536 4.8 8 5.336 8 5.997V26c0 .666.534 1.2 1.2 1.2h2.4c.666 0 1.2-.534 1.2-1.2v-8.4h6.4V26c0 .666.534 1.2 1.2 1.2h2.4c.666 0 1.2-.534 1.2-1.2V5.997c0-.661-.536-1.197-1.197-1.197H22.8z" style="fill:var(--color1, #ef8964)"/></symbol><symbol id="icon-green-circleopt" viewBox="0 0 32 32"><path fill="#419b09" d="M16 0c8.837 0 16 7.163 16 16s-7.163 16-16 16S0 24.837 0 16 7.163 0 16 0z" style="fill:var(--color2, #419b09)"/></symbol><symbol id="icon-red-circleopt" viewBox="0 0 32 32"><path fill="#e9101d" d="M16 0c8.837 0 16 7.163 16 16s-7.163 16-16 16S0 24.837 0 16 7.163 0 16 0z" style="fill:var(--color3, #e9101d)"/></symbol><symbol id="icon-appleopt" viewBox="0 0 32 32"><path fill="#ef8964" d="M19.456 4.758a.8.8 0 1 0-.514-1.515l.006-.002c-1.501.499-2.435 1.731-2.986 3.051a6.17 6.17 0 0 0-.185.483l-.018.059a6.44 6.44 0 0 0-3.252-2.948l-.043-.015a6.278 6.278 0 0 0-2.553-.448h.01a1.742 1.742 0 0 0-1.696 1.694 6.362 6.362 0 0 0 1.872 4.704l.05.048c-2.738.608-4.794 2.906-5.027 5.722l-.002.023-.01.118c-.028.325-.043.704-.043 1.087 0 2.387.615 4.63 1.695 6.58l-.035-.07.576 1.053a.979.979 0 0 0 .051.08l1.6 2.243a4.297 4.297 0 0 0 6.534.541.727.727 0 0 1 1.032 0 4.281 4.281 0 0 0 3.038 1.259 4.29 4.29 0 0 0 3.487-1.787l.009-.013 1.6-2.242a.65.65 0 0 0 .049-.078l.002-.004.576-1.053c1.045-1.88 1.659-4.123 1.659-6.51 0-.382-.016-.761-.047-1.136l.003.049-.01-.118c-.271-3.308-3.022-5.889-6.377-5.889-.373 0-.738.032-1.093.093l.038-.005-2.651.442c.016-1.09.208-2.315.64-3.349.448-1.08 1.112-1.848 2.011-2.149h.002zm-8.4 9.6a1.968 1.968 0 0 0-1.144.957l-.005.011c-.296.557-.499 1.475-.312 2.974a.8.8 0 0 1-1.587.202l-.001-.004c-.213-1.702-.016-2.984.488-3.926a3.551 3.551 0 0 1 2.053-1.733.8.8 0 0 1 .511 1.517l-.006.002z" style="fill:var(--color1, #ef8964)"/></symbol><symbol id="icon-burnopt" viewBox="0 0 32 32"><path fill="#ef8964" d="M16 22.291c-.944.72-2.896 2.501-2.896 4.925 0 1.602 1.299 2.904 2.896 2.904s2.896-1.302 2.896-2.904c0-2.296-1.952-4.16-2.896-4.925z" style="fill:var(--color1, #ef8964)"/><path fill="#ef8964" d="M22.79 5.57a.935.935 0 0 0-1.341-.063l-4.41 4.117V1c0-.72-.87-1.259-1.522-.864-.126.074-3.058 1.862-6.019 5.114-3.602 3.952-6.056 8.765-6.056 14.163 0 6.942 5.632 12.589 12.557 12.589a4.783 4.783 0 0 1-4.771-4.784c0-4.261 4.138-6.784 4.314-6.891a.934.934 0 0 1 .999.025l-.003-.002c.173.114 4.235 2.838 4.235 6.869a4.784 4.784 0 0 1-4.772 4.784H16c6.925 0 12.557-5.648 12.557-12.587 0-5.242-2.312-9.938-5.766-13.843z" style="fill:var(--color1, #ef8964)"/></symbol><symbol id="icon-warningopt" viewBox="0 0 32 32"><path fill="#efa082" d="M32 16c0 8.837-7.163 16-16 16S0 24.837 0 16 7.163 0 16 0s16 7.163 16 16z" style="fill:var(--color4, #efa082)"/><path fill="none" stroke="#efede8" stroke-linecap="round" stroke-linejoin="round" stroke-width="2.667" d="M16 25.333v.013M16 20V6.667" style="stroke:var(--color5, #efede8)"/></symbol><symbol id="icon-calendaropt" viewBox="0 0 32 32"><path fill="none" stroke="#ef8964" stroke-linecap="round" stroke-linejoin="round" stroke-width="2.4" d="M25.333 5.333H6.666A2.667 2.667 0 0 0 3.999 8v18.667a2.667 2.667 0 0 0 2.667 2.667v0h18.667A2.667 2.667 0 0 0 28 26.667v0V8a2.667 2.667 0 0 0-2.667-2.667v0zm-4-2.666V8M10.667 2.667V8M4 13.333h24" style="stroke:var(--color1, #ef8964)"/></symbol><symbol id="icon-bubbleopt" viewBox="0 0 32 32"><path fill="#ef8964" d="M20.794 16.346c3.778 0 6.84-3.062 6.84-6.84s-3.062-6.84-6.84-6.84-6.84 3.062-6.84 6.84 3.062 6.84 6.84 6.84zM8.475 25.92a4.107 4.107 0 0 0 0-8.214 4.108 4.108 0 0 0-.004 8.212h.004zm13.675 3.413a3.414 3.414 0 0 0 0-6.828 3.414 3.414 0 0 0 0 6.828z" style="fill:var(--color1, #ef8964)"/></symbol></defs></svg>