<svg aria-hidden="true" style="position:absolute;width:0;height:0;overflow:hidden" xmlns="http://www.w3.org/2000/svg"><defs>
<symbol id="icon-add-arrow" viewBox="0 0 32 32"><path stroke-linejoin="round" stroke-linecap="round" stroke-width="2.773" d="M16 29.867 29.867 16m0 0L16 2.133M29.867 16H2.134"/></symbol>
<symbol id="icon-apple" viewBox="0 0 32 32"><path fill="#ef8964" style="fill:var(--color2, #ef8964)" d="M19.454 4.758a.8.8 0 1 0-.513-1.515l.006-.002c-1.501.499-2.435 1.731-2.986 3.051a6.17 6.17 0 0 0-.185.483l-.018.059a6.438 6.438 0 0 0-3.253-2.948l-.043-.015a6.275 6.275 0 0 0-2.555-.449h.009a1.74 1.74 0 0 0-1.694 1.694 6.362 6.362 0 0 0 1.872 4.704l.05.048c-2.738.608-4.793 2.908-5.026 5.724l-.002.023-.01.118c-.028.325-.043.704-.043 1.087 0 2.387.615 4.63 1.695 6.58l-.035-.07.576 1.053a.979.979 0 0 0 .051.08l1.6 2.243a4.297 4.297 0 0 0 6.534.541.727.727 0 0 1 1.032 0 4.281 4.281 0 0 0 3.038 1.259 4.29 4.29 0 0 0 3.487-1.787l.009-.013 1.6-2.242a.65.65 0 0 0 .049-.078l.002-.004.574-1.053c1.045-1.88 1.659-4.123 1.659-6.51 0-.382-.016-.761-.047-1.136l.003.049-.008-.118c-.271-3.308-3.022-5.889-6.377-5.889-.373 0-.738.032-1.093.093l.038-.005-2.651.442c.016-1.09.208-2.315.638-3.349.448-1.08 1.114-1.848 2.013-2.149h.002zm-8.4 9.6a1.96 1.96 0 0 0-1.142.957l-.005.011c-.296.557-.499 1.475-.312 2.974a.8.8 0 0 1-1.587.202l-.001-.004c-.213-1.702-.016-2.984.488-3.926a3.551 3.551 0 0 1 2.053-1.733.8.8 0 0 1 .511 1.517l-.006.002z"/></symbol>
<symbol id="icon-arrow-modal" viewBox="0 0 32 32"><path fill="none" stroke="#efede8" style="stroke:var(--color3, #efede8)" stroke-linejoin="round" stroke-linecap="round" stroke-width="2.6" d="m15 28 13-13m0 0L15 2m13 13H2"/></symbol>
<symbol id="icon-bubble" viewBox="0 0 32 32"><path fill="#ef8964" style="fill:var(--color2, #ef8964)" d="M20.794 16.346c3.778 0 6.84-3.062 6.84-6.84s-3.062-6.84-6.84-6.84-6.84 3.062-6.84 6.84 3.062 6.84 6.84 6.84zM8.475 25.92a4.107 4.107 0 0 0 0-8.214 4.108 4.108 0 0 0-.004 8.212h.004zm13.675 3.413a3.414 3.414 0 0 0 0-6.828 3.414 3.414 0 0 0 0 6.828z"/></symbol>
<symbol id="icon-burger-menu" viewBox="0 0 32 32"><path fill="none" stroke="#e6533c" style="stroke:var(--color1, #e6533c)" stroke-linejoin="round" stroke-linecap="round" stroke-width="2" d="M4 16h16M4 8h24M4 24h24"/></symbol>
<symbol id="calendar" viewBox="0 0 32 32">
<path stroke-linejoin="round" stroke-linecap="round" stroke-miterlimit="4" stroke-width="2.4" d="M25.333 5.333h-18.667c-1.473 0-2.667 1.194-2.667 2.667v18.667c0 1.473 1.194 2.667 2.667 2.667h18.667c1.473 0 2.667-1.194 2.667-2.667v-18.667c0-1.473-1.194-2.667-2.667-2.667z"></path>
<path stroke-linejoin="round" stroke-linecap="round" stroke-miterlimit="4" stroke-width="2.4" d="M21.333 2.667v5.333"></path>
<path stroke-linejoin="round" stroke-linecap="round" stroke-miterlimit="4" stroke-width="2.4" d="M10.667 2.667v5.333"></path>
<path stroke-linejoin="round" stroke-linecap="round" stroke-miterlimit="4" stroke-width="2.4" d="M4 13.333h24"></path>
</symbol>
<symbol id="icon-calendar-bage" viewBox="0 0 32 32"><path fill="none" stroke="#ef8964" style="stroke:var(--color2, #ef8964)" stroke-linejoin="round" stroke-linecap="round" stroke-width="2.667" d="M25.333 5.333H6.666A2.667 2.667 0 0 0 3.999 8v18.667a2.667 2.667 0 0 0 2.667 2.667v0h18.667A2.667 2.667 0 0 0 28 26.667v0V8a2.667 2.667 0 0 0-2.667-2.667v0zm-4-2.666V8M10.667 2.667V8M4 13.333h24"/></symbol>
<symbol id="icon-calendar-withe" viewBox="0 0 32 32"><path fill="none" stroke="#efede8" style="stroke:var(--color3, #efede8)" stroke-linejoin="round" stroke-linecap="round" stroke-width="2.667" d="M25.333 5.333H6.666A2.667 2.667 0 0 0 3.999 8v18.667a2.667 2.667 0 0 0 2.667 2.667v0h18.667A2.667 2.667 0 0 0 28 26.667v0V8a2.667 2.667 0 0 0-2.667-2.667v0zm-4-2.666V8M10.667 2.667V8M4 13.333h24"/></symbol>
<symbol id="icon-calories" viewBox="0 0 32 32"><path fill="#ef8964" style="fill:var(--color2, #ef8964)" d="M16 22.291c-.944.72-2.896 2.501-2.896 4.925 0 1.602 1.299 2.904 2.896 2.904s2.896-1.302 2.896-2.904c0-2.296-1.952-4.16-2.896-4.925z"/><path fill="#ef8964" style="fill:var(--color2, #ef8964)" d="M22.789 5.57a.934.934 0 0 0-1.34-.064h.001l-4.413 4.117V.999c0-.72-.869-1.259-1.52-.864-.125.074-3.058 1.862-6.021 5.114-3.6 3.952-6.054 8.765-6.054 14.163C3.444 26.354 9.076 32.001 16 32.001a4.783 4.783 0 0 1-4.771-4.784c0-4.261 4.138-6.784 4.314-6.891a.934.934 0 0 1 .999.025l-.003-.002c.173.114 4.234 2.838 4.234 6.869a4.784 4.784 0 0 1-4.77 4.784h-.001c6.923 0 12.557-5.648 12.557-12.587 0-5.242-2.312-9.938-5.768-13.843z"/></symbol>
<symbol id="icon-check-mark" viewBox="0 0 33 32"><path fill="#e6533c" style="fill:var(--color1, #e6533c)" d="m11.238.428 4.69 1.356c.34.098.7.099 1.039.002l4.83-1.375a1.881 1.881 0 0 1 2.161.897l.005.01 2.506 4.577c.168.307.419.561.724.734l3.986 2.258a1.885 1.885 0 0 1 .865 2.212l.004-.013-1.38 4.428a1.9 1.9 0 0 0 .002 1.129l-.004-.013 1.394 4.521a1.88 1.88 0 0 1-.84 2.175l-.009.005-4.443 2.598c-.303.177-.55.435-.715.746l-2.113 4.004a1.884 1.884 0 0 1-2.158.938l.013.003-4.864-1.284a1.887 1.887 0 0 0-.981.005l.013-.003-4.713 1.264a1.883 1.883 0 0 1-2.17-.973l-.005-.011-2.106-4.256a1.894 1.894 0 0 0-.806-.829l-.01-.005-4.305-2.247a1.885 1.885 0 0 1-.941-2.183l-.003.013 1.256-4.548a1.88 1.88 0 0 0 .004-.985L.877 10.737a1.88 1.88 0 0 1 .895-2.124l.009-.005 4.422-2.46c.321-.178.584-.447.754-.774l2.09-4.006a1.885 1.885 0 0 1 2.205-.935L11.239.43z"/><path fill="none" stroke="#efede8" style="stroke:var(--color3, #efede8)" stroke-linejoin="round" stroke-linecap="round" stroke-width="2" d="M16.5 10.75v10.5M11.25 16h10.5"/></symbol>
<symbol id="icon-dumbbell" viewBox="0 0 32 32"><path fill="#ef8964" style="fill:var(--color2, #ef8964)" d="M5.2 8H2.797C2.136 8 1.6 8.536 1.6 9.197V14.4H.4a.4.4 0 0 0-.4.4v2.4c0 .219.181.4.4.4h1.2v5.2c0 .666.534 1.2 1.2 1.2h2.4c.666 0 1.2-.534 1.2-1.2V9.197C6.4 8.536 5.864 8 5.203 8H5.2zm26.4 6.4h-1.2V9.197C30.4 8.536 29.864 8 29.203 8h-2.406c-.661 0-1.197.536-1.197 1.197V22.8c0 .666.534 1.2 1.2 1.2h2.4c.666 0 1.2-.534 1.2-1.2v-5.2h1.2a.4.4 0 0 0 .4-.4v-2.4a.4.4 0 0 0-.4-.4zm-8.8-9.6h-2.403c-.661 0-1.197.536-1.197 1.197V14.4h-6.4V5.997c0-.661-.536-1.197-1.197-1.197H9.197C8.536 4.8 8 5.336 8 5.997V26c0 .666.534 1.2 1.2 1.2h2.4c.666 0 1.2-.534 1.2-1.2v-8.4h6.4V26c0 .666.534 1.2 1.2 1.2h2.4c.666 0 1.2-.534 1.2-1.2V5.997c0-.661-.536-1.197-1.197-1.197H22.8z"/></symbol>
<symbol id="icon-fork-knife" viewBox="0 0 32 32"><path fill="#ef8964" style="fill:var(--color2, #ef8964)" d="M24 4c.682 0 1.244.511 1.324 1.171l.001.006.008.155v21.334a1.335 1.335 0 0 1-2.655.162l-.001-.007-.01-.155v-6.667h-1.334a1.334 1.334 0 0 1-1.323-1.171l-.001-.006-.01-.155v-8c0-2.947 2-6.667 4-6.667zm-8 0c.682 0 1.244.511 1.324 1.171l.001.006.008.155v6.667a5.338 5.338 0 0 1-3.963 5.156l-.037.008v9.502a1.332 1.332 0 0 1-2.656.161l-.001-.006-.01-.155v-9.502c-2.23-.59-3.869-2.532-3.995-4.876l-.001-.013-.005-.275V5.332a1.333 1.333 0 0 1 2.656-.161l.001.006.01.155v6.667a2.666 2.666 0 0 0 1.322 2.302l.013.007V5.332a1.332 1.332 0 0 1 2.656-.161l.001.006.01.155.002 8.976a2.67 2.67 0 0 0 1.322-2.073l.001-.01.01-.226V5.332c0-.736.597-1.333 1.333-1.333z"/></symbol>
<symbol id="icon-line" viewBox="0 0 32 32"><path fill="none" stroke="#ef8964" style="stroke:var(--color2, #ef8964)" stroke-linejoin="round" stroke-linecap="round" stroke-width=".342" d="M22.527 10.267c-7.533.111-23.984 1.444-22.225 8.23 1.581 4.791 24.105 3.762 29.662.157s-2.075-7.357-12.713-6.028"/></symbol>
<symbol id="icon-line-mobile" viewBox="0 0 32 32"><path fill="none" stroke="#ef8964" style="stroke:var(--color2, #ef8964)" stroke-linejoin="round" stroke-linecap="round" stroke-width=".64" d="M22.465 10.4c-7.462.108-23.758 1.411-22.016 8.039 1.566 4.68 23.878 3.675 29.383.153s-2.055-7.187-12.594-5.889"/></symbol>
<symbol id="icon-logo-large-img" viewBox="0 0 83 32">
<path d="M80.941 13.714c1.040 0 1.882 0.843 1.882 1.882v0.807c0 1.040-0.843 1.882-1.882 1.882h-2.151c-1.039 0-1.882 0.843-1.882 1.882v5.378c0 1.040-0.843 1.882-1.882 1.882h-2.151c-1.040 0-1.882 0.843-1.882 1.882v0.807c0 1.040-0.843 1.882-1.882 1.882h-5.109c-1.040 0-1.882-0.843-1.882-1.882v-9.95c0-1.040-0.843-1.882-1.882-1.882h-37.647c-1.040 0-1.882 0.843-1.882 1.882v9.95c0 1.040-0.843 1.882-1.882 1.882h-5.109c-1.040 0-1.882-0.843-1.882-1.882v-0.807c0-1.040-0.843-1.882-1.882-1.882h-2.151c-1.040 0-1.882-0.843-1.882-1.882v-5.378c0-1.040-0.843-1.882-1.882-1.882h-2.151c-1.040 0-1.882-0.843-1.882-1.882v-0.807c0-1.040 0.843-1.882 1.882-1.882h2.151c1.040 0 1.882-0.843 1.882-1.882v-5.378c0-1.040 0.843-1.882 1.882-1.882h2.151c1.040 0 1.882-0.843 1.882-1.882v-0.807c0-1.040 0.843-1.882 1.882-1.882h5.109c1.040 0 1.882 0.843 1.882 1.882v9.95c0 1.040 0.843 1.882 1.882 1.882h37.647c1.040 0 1.882-0.843 1.882-1.882v-9.95c0-1.040 0.843-1.882 1.882-1.882h5.109c1.040 0 1.882 0.843 1.882 1.882v0.807c0 1.040 0.843 1.882 1.882 1.882h2.151c1.040 0 1.882 0.843 1.882 1.882v5.378c0 1.040 0.843 1.882 1.882 1.882h2.151z"></path>
</symbol>
<symbol id="icon-logo-large-text" viewBox="0 0 188 32">
<path fill="#efede8" style="fill: var(--color3, #efede8)" d="M0 29.873v-26.353h9.412c1.431 0 2.723 0.358 3.878 1.073 1.167 0.715 2.089 1.675 2.767 2.88s1.016 2.529 1.016 3.972c0 1.481-0.351 2.824-1.054 4.028-0.69 1.192-1.619 2.146-2.786 2.861-1.167 0.703-2.441 1.054-3.821 1.054h-4.819v10.485h-4.593zM4.593 14.795h4.329c0.653 0 1.249-0.163 1.788-0.489s0.966-0.765 1.28-1.318c0.326-0.552 0.489-1.167 0.489-1.845 0-0.69-0.163-1.311-0.489-1.864-0.314-0.552-0.74-0.991-1.28-1.318s-1.136-0.489-1.788-0.489h-4.329v7.322z"></path>
<path fill="#efede8" style="fill: var(--color3, #efede8)" d="M27.51 30.362c-1.732 0-3.313-0.446-4.744-1.336-1.418-0.891-2.554-2.083-3.407-3.576-0.841-1.506-1.261-3.169-1.261-4.988 0-1.38 0.245-2.667 0.734-3.859 0.489-1.205 1.161-2.259 2.014-3.162 0.866-0.916 1.87-1.631 3.012-2.146s2.359-0.772 3.652-0.772c1.732 0 3.307 0.445 4.725 1.336 1.431 0.891 2.566 2.089 3.407 3.595 0.853 1.506 1.28 3.175 1.28 5.007 0 1.368-0.245 2.648-0.734 3.84s-1.167 2.246-2.033 3.162c-0.853 0.904-1.851 1.613-2.993 2.127-1.129 0.514-2.347 0.772-3.652 0.772zM27.51 25.769c0.916 0 1.738-0.245 2.466-0.734s1.299-1.136 1.713-1.939c0.427-0.803 0.64-1.681 0.64-2.635 0-0.979-0.219-1.87-0.659-2.673-0.427-0.816-1.010-1.462-1.751-1.939-0.728-0.489-1.531-0.734-2.409-0.734-0.904 0-1.719 0.245-2.447 0.734s-1.305 1.142-1.732 1.958c-0.427 0.816-0.64 1.7-0.64 2.654 0 0.991 0.22 1.889 0.659 2.692s1.023 1.443 1.751 1.92c0.741 0.464 1.544 0.696 2.409 0.696z"></path>
<path fill="#efede8" style="fill: var(--color3, #efede8)" d="M48.683 29.873h-4.555l-6.287-18.824h4.499l4.085 12.179 4.066-12.179h4.536l4.066 12.179 4.085-12.179h4.499l-6.287 18.824h-4.555l-4.085-12.235-4.066 12.235z"></path>
<path fill="#efede8" style="fill: var(--color3, #efede8)" d="M78.025 30.362c-1.732 0-3.313-0.446-4.744-1.336-1.418-0.891-2.554-2.089-3.407-3.595-0.841-1.506-1.261-3.169-1.261-4.988 0-1.368 0.245-2.648 0.734-3.84 0.489-1.205 1.161-2.259 2.014-3.162 0.866-0.916 1.87-1.631 3.012-2.146s2.359-0.772 3.652-0.772c1.468 0 2.811 0.314 4.028 0.941 1.23 0.615 2.271 1.462 3.125 2.541s1.474 2.309 1.864 3.689c0.389 1.38 0.477 2.824 0.264 4.329h-13.76c0.176 0.703 0.464 1.336 0.866 1.901 0.401 0.552 0.91 0.998 1.525 1.336 0.615 0.326 1.311 0.496 2.089 0.508 0.803 0.013 1.531-0.176 2.184-0.565 0.665-0.401 1.217-0.941 1.656-1.619l4.687 1.092c-0.766 1.669-1.908 3.037-3.426 4.104-1.519 1.054-3.219 1.581-5.101 1.581zM73.394 18.579h9.261c-0.138-0.753-0.433-1.431-0.885-2.033-0.439-0.615-0.985-1.104-1.638-1.468s-1.355-0.546-2.108-0.546-1.449 0.182-2.089 0.546c-0.64 0.351-1.186 0.835-1.638 1.449-0.439 0.602-0.741 1.286-0.904 2.052z"></path>
<path fill="#efede8" style="fill: var(--color3, #efede8)" d="M90.386 29.873l-0.019-18.824h4.593l0.019 1.675c0.64-0.678 1.406-1.211 2.296-1.6 0.891-0.402 1.851-0.602 2.88-0.602 0.69 0 1.38 0.1 2.071 0.301l-1.807 4.631c-0.477-0.188-0.954-0.282-1.431-0.282-0.74 0-1.418 0.182-2.033 0.546-0.602 0.351-1.086 0.834-1.449 1.449-0.351 0.602-0.527 1.274-0.527 2.014v10.692h-4.593z"></path>
<path fill="#efede8" style="fill: var(--color3, #efede8)" d="M104.338 29.873v-26.353h9.412c1.431 0 2.723 0.358 3.878 1.073 1.167 0.715 2.089 1.675 2.767 2.88s1.016 2.529 1.016 3.972c0 1.481-0.351 2.824-1.054 4.028-0.69 1.192-1.619 2.146-2.786 2.861-1.167 0.703-2.441 1.054-3.821 1.054h-4.819v10.485h-4.593zM108.931 14.795h4.329c0.653 0 1.249-0.163 1.788-0.489s0.966-0.765 1.28-1.318c0.326-0.552 0.489-1.167 0.489-1.845 0-0.69-0.163-1.311-0.489-1.864-0.314-0.552-0.74-0.991-1.28-1.318s-1.136-0.489-1.788-0.489h-4.329v7.322z"></path>
<path fill="#efede8" style="fill: var(--color3, #efede8)" d="M123.365 22.908v-11.859h4.593v10.654c0 0.74 0.182 1.418 0.546 2.033 0.364 0.602 0.847 1.086 1.449 1.449 0.615 0.351 1.286 0.527 2.014 0.527 0.753 0 1.431-0.176 2.033-0.527 0.602-0.364 1.086-0.847 1.449-1.449 0.364-0.615 0.546-1.293 0.546-2.033v-10.654h4.593l0.019 18.824h-4.593l-0.019-1.713c-0.653 0.678-1.424 1.217-2.315 1.619-0.891 0.389-1.845 0.584-2.861 0.584-1.368 0-2.616-0.333-3.746-0.998-1.129-0.678-2.033-1.575-2.711-2.692-0.665-1.129-0.998-2.384-0.998-3.765z"></path>
<path fill="#efede8" style="fill: var(--color3, #efede8)" d="M144.485 29.873v-28.235h4.593v28.235h-4.593z"></path>
<path fill="#efede8" style="fill: var(--color3, #efede8)" d="M159.156 30.212c-0.979-0.063-1.926-0.257-2.842-0.584-0.904-0.339-1.707-0.797-2.409-1.374s-1.242-1.267-1.619-2.071l3.878-1.656c0.151 0.251 0.395 0.521 0.734 0.809 0.339 0.276 0.74 0.508 1.205 0.696 0.477 0.188 0.998 0.282 1.562 0.282 0.477 0 0.929-0.063 1.355-0.188 0.439-0.138 0.791-0.345 1.054-0.621 0.276-0.276 0.414-0.634 0.414-1.073 0-0.464-0.163-0.822-0.489-1.073-0.314-0.264-0.715-0.458-1.205-0.584-0.477-0.138-0.941-0.264-1.393-0.376-1.192-0.238-2.303-0.609-3.332-1.111-1.016-0.502-1.839-1.148-2.466-1.939-0.615-0.803-0.922-1.769-0.922-2.899 0-1.242 0.326-2.315 0.979-3.219 0.665-0.904 1.525-1.6 2.579-2.089 1.067-0.489 2.215-0.734 3.445-0.734 1.493 0 2.861 0.314 4.104 0.941 1.255 0.615 2.246 1.487 2.974 2.616l-3.633 2.146c-0.176-0.301-0.421-0.577-0.734-0.828-0.314-0.264-0.671-0.477-1.073-0.64-0.402-0.176-0.822-0.276-1.261-0.301-0.565-0.025-1.079 0.025-1.544 0.151s-0.841 0.339-1.129 0.64c-0.276 0.301-0.414 0.703-0.414 1.205 0 0.477 0.188 0.834 0.565 1.073 0.376 0.226 0.828 0.402 1.355 0.527 0.539 0.125 1.054 0.264 1.544 0.414 1.104 0.364 2.139 0.809 3.106 1.336 0.979 0.527 1.763 1.173 2.353 1.939s0.872 1.681 0.847 2.748c0 1.217-0.364 2.284-1.092 3.2-0.728 0.904-1.669 1.594-2.824 2.071-1.142 0.477-2.366 0.665-3.671 0.565z"></path>
<path fill="#efede8" style="fill: var(--color3, #efede8)" d="M177.951 30.362c-1.732 0-3.313-0.446-4.744-1.336-1.418-0.891-2.554-2.089-3.407-3.595-0.841-1.506-1.261-3.169-1.261-4.988 0-1.368 0.245-2.648 0.734-3.84 0.489-1.205 1.161-2.259 2.014-3.162 0.866-0.916 1.87-1.631 3.012-2.146s2.359-0.772 3.652-0.772c1.468 0 2.811 0.314 4.028 0.941 1.23 0.615 2.271 1.462 3.125 2.541s1.475 2.309 1.864 3.689c0.389 1.38 0.477 2.824 0.264 4.329h-13.76c0.176 0.703 0.464 1.336 0.866 1.901 0.402 0.552 0.91 0.998 1.525 1.336 0.615 0.326 1.311 0.496 2.089 0.508 0.803 0.013 1.531-0.176 2.184-0.565 0.665-0.401 1.217-0.941 1.656-1.619l4.687 1.092c-0.766 1.669-1.907 3.037-3.426 4.104-1.518 1.054-3.219 1.581-5.101 1.581zM173.321 18.579h9.261c-0.138-0.753-0.433-1.431-0.885-2.033-0.439-0.615-0.985-1.104-1.638-1.468s-1.355-0.546-2.108-0.546-1.449 0.182-2.089 0.546c-0.64 0.351-1.186 0.835-1.638 1.449-0.439 0.602-0.74 1.286-0.904 2.052z"></path>
</symbol>
<symbol id="icon-logo-small-img" viewBox="0 0 32 32"><path fill="#e6533c" style="fill:var(--color1, #e6533c)" d="M31.174 15.174a.826.826 0 0 1 0 1.652h-.571a.889.889 0 0 0-.889.889v1.524a.889.889 0 0 1-.889.889h-.572a.826.826 0 0 0-.826.825.826.826 0 0 1-.825.826h-1.715a.889.889 0 0 1-.889-.889v-3.174a.889.889 0 0 0-.889-.889H8.887a.889.889 0 0 0-.889.889v3.174a.889.889 0 0 1-.889.889H5.394a.825.825 0 0 1-.825-.826.825.825 0 0 0-.826-.825h-.572a.889.889 0 0 1-.889-.889v-1.524a.889.889 0 0 0-.889-.889h-.57a.826.826 0 0 1 0-1.652h.571a.889.889 0 0 0 .889-.889v-1.524c0-.491.398-.889.889-.889h.572a.826.826 0 0 0 .825-.824c0-.456.37-.826.825-.826h1.715c.491 0 .889.398.889.889v3.174c0 .491.398.889.889.889h14.222a.889.889 0 0 0 .889-.889V11.11c0-.491.398-.889.889-.889h1.715c.455 0 .825.37.825.826s.37.825.826.825h.572c.491 0 .889.398.889.889v1.524c0 .491.398.889.889.889h.571z"/></symbol>
<symbol id="icon-logo-small-text" viewBox="0 0 32 32"><path fill="#efede8" style="fill:var(--color3, #efede8)" d="M0 18.262v-4.297h1.608c.244 0 .465.059.662.175.199.116.357.273.472.469s.174.412.174.647c0 .242-.06.46-.18.657a1.358 1.358 0 0 1-.469.463l-.006.003a1.283 1.283 0 0 1-.653.172H.785v1.709H.001zm.784-2.459h.748a.6.6 0 0 0 .515-.292l.002-.003a.556.556 0 0 0 .083-.3.6.6 0 0 0-.6-.599H.785v1.194zm3.915 2.538c-.296 0-.566-.073-.81-.218a1.692 1.692 0 0 1-.578-.575l-.004-.008a1.567 1.567 0 0 1-.216-.797v-.017.001a1.61 1.61 0 0 1 .469-1.144 1.63 1.63 0 0 1 .504-.346l.01-.004c.181-.079.392-.126.614-.126h.01-.001c.296 0 .565.073.807.218s.439.342.578.579l.004.008c.146.245.219.517.219.816 0 .223-.042.432-.125.626a1.64 1.64 0 0 1-.858.862 1.53 1.53 0 0 1-.611.126h-.014.001zm0-.748c.157 0 .297-.04.421-.119s.222-.185.293-.316a.867.867 0 0 0 .109-.43.861.861 0 0 0-.113-.436.84.84 0 0 0-.295-.314l-.004-.002a.74.74 0 0 0-.406-.12h-.015a.755.755 0 0 0-.412.122l.003-.002a.878.878 0 0 0-.294.315l-.002.005a.884.884 0 0 0-.109.433v.009c0 .312.163.586.408.741l.004.002a.79.79 0 0 0 .411.113zm3.617.669h-.778l-1.074-3.069h.768l.698 1.986.695-1.986H9.4l.695 1.986.698-1.986h.768l-1.074 3.069h-.778l-.698-1.995-.695 1.995zm5.011.079c-.296 0-.566-.073-.81-.218a1.683 1.683 0 0 1-.578-.578l-.004-.008a1.567 1.567 0 0 1-.216-.797v-.017.001a1.626 1.626 0 0 1 .973-1.487l.01-.004c.181-.079.392-.126.614-.126h.01-.001c.251 0 .48.051.688.153.21.1.388.238.534.414a1.668 1.668 0 0 1 .363 1.308h-2.35c.03.115.08.218.148.31a.78.78 0 0 0 .26.218.81.81 0 0 0 .73-.009.84.84 0 0 0 .283-.264l.8.178a1.678 1.678 0 0 1-.579.665l-.006.004c-.259.172-.55.258-.871.258zm-.791-1.921h1.582a.765.765 0 0 0-.152-.333l.001.002a.845.845 0 0 0-.275-.237l-.004-.002a.745.745 0 0 0-.356-.089h-.005a.741.741 0 0 0-.357.089.845.845 0 0 0-.433.565l-.001.006zm2.903 1.842-.003-3.069h.784l.003.273a1.238 1.238 0 0 1 .884-.359c.118 0 .236.016.354.049l-.308.755a.668.668 0 0 0-.245-.046h-.007a.692.692 0 0 0-.586.323l-.002.003a.617.617 0 0 0-.09.328v1.743h-.785zm2.383 0v-4.297h1.608a1.305 1.305 0 0 1 1.135.644c.116.196.174.412.174.647 0 .242-.06.46-.18.657a1.352 1.352 0 0 1-.47.463l-.006.003a1.282 1.282 0 0 1-.652.172h-.823v1.709h-.784zm.784-2.459h.748a.6.6 0 0 0 .515-.292l.002-.003a.565.565 0 0 0 .084-.3.6.6 0 0 0-.601-.599h-.747v1.194zm2.466 1.323v-1.933h.784v1.737c0 .121.031.231.094.332a.699.699 0 0 0 .247.236.71.71 0 0 0 .344.086.7.7 0 0 0 .347-.086.71.71 0 0 0 .248-.236.618.618 0 0 0 .093-.332v-1.737h.784l.003 3.069h-.784l-.003-.279a1.282 1.282 0 0 1-.387.261l-.008.003a1.246 1.246 0 0 1-.489.095h-.014c-.23 0-.445-.06-.632-.166l.006.003a1.319 1.319 0 0 1-.46-.433l-.003-.005a1.136 1.136 0 0 1-.171-.602v-.013.001zm3.607 1.136v-4.603h.784v4.603h-.784zm2.506.055a1.858 1.858 0 0 1-.498-.099l.013.004a1.466 1.466 0 0 1-.415-.226l.003.002a.975.975 0 0 1-.274-.332l-.003-.006.662-.27a.573.573 0 0 0 .125.132.741.741 0 0 0 .473.16c.082 0 .159-.01.232-.03a.435.435 0 0 0 .18-.101.23.23 0 0 0 .071-.167V17.366a.204.204 0 0 0-.083-.164h-.001a.516.516 0 0 0-.202-.095l-.003-.001a5.585 5.585 0 0 0-.238-.061 2.436 2.436 0 0 1-.584-.187l.015.006a1.214 1.214 0 0 1-.42-.314l-.001-.002a.733.733 0 0 1-.157-.473.84.84 0 0 1 .167-.525c.115-.147.263-.263.433-.338l.007-.003a1.597 1.597 0 0 1 1.289.034c.214.1.384.242.508.427l-.62.35a.497.497 0 0 0-.124-.134l-.001-.001a.67.67 0 0 0-.183-.104.633.633 0 0 0-.214-.049h-.002a.882.882 0 0 0-.263.025.412.412 0 0 0-.193.104.27.27 0 0 0-.071.183v.015-.001c0 .078.032.136.096.175a.824.824 0 0 0 .231.086c.093.02.18.043.264.067.189.059.366.132.531.218.167.086.301.191.402.316s.149.274.144.448a.789.789 0 0 1-.187.522c-.124.148-.285.26-.482.338a1.397 1.397 0 0 1-.627.092zm3.211.024c-.296 0-.566-.073-.811-.218a1.68 1.68 0 0 1-.577-.578l-.004-.008a1.56 1.56 0 0 1-.216-.798v-.017.001a1.626 1.626 0 0 1 .973-1.487l.01-.004c.181-.079.392-.126.614-.126h.011-.001c.251 0 .48.051.688.153.21.1.388.238.533.414s.252.377.318.602c.066.225.082.46.045.706h-2.35a.88.88 0 0 0 .148.31.78.78 0 0 0 .26.218.81.81 0 0 0 .73-.009.84.84 0 0 0 .283-.264l.801.178a1.678 1.678 0 0 1-.579.665l-.006.004a1.539 1.539 0 0 1-.871.258zm-.791-1.921h1.582a.765.765 0 0 0-.152-.333l.001.002a.845.845 0 0 0-.275-.237l-.004-.002a.745.745 0 0 0-.356-.089h-.005a.738.738 0 0 0-.357.089.85.85 0 0 0-.433.565l-.001.006z"/></symbol>
<symbol id="icon-log-out" viewBox="0 0 32 32"><path fill="none" stroke="#e6533c" style="stroke:var(--color1, #e6533c)" stroke-linejoin="round" stroke-linecap="round" stroke-width="2.4" d="M12 4h-1.6c-2.24 0-3.36 0-4.216.435a4.026 4.026 0 0 0-1.738 1.727l-.011.022C4 7.04 4 8.16 4 10.4v11.2c0 2.24 0 3.36.435 4.216a4.027 4.027 0 0 0 1.726 1.737l.022.011c.856.437 1.976.437 4.216.437h1.6m9.334-5.334L28 16m0 0-6.667-6.667M28 16H12"/></symbol>
<symbol id="icon-log-out-white" viewBox="0 0 32 32"><path fill="none" stroke="#efede8" style="stroke:var(--color3, #efede8)" stroke-linejoin="round" stroke-linecap="round" stroke-width="2.4" d="M12 4h-1.6c-2.24 0-3.36 0-4.216.435a4.026 4.026 0 0 0-1.738 1.727l-.011.022C4 7.04 4 8.16 4 10.4v11.2c0 2.24 0 3.36.435 4.216a4.027 4.027 0 0 0 1.726 1.737l.022.011c.856.437 1.976.437 4.216.437h1.6m9.334-5.334L28 16m0 0-6.667-6.667M28 16H12"/></symbol>
<symbol id="icon-pause-square" viewBox="0 0 32 32"><path fill="#e6533c" style="fill:var(--color1, #e6533c);stroke:var(--color1, #e6533c)" stroke="#e6533c" stroke-linejoin="round" stroke-linecap="round" d="M4 10.4c0-2.24 0-3.36.436-4.216a4.027 4.027 0 0 1 1.726-1.737l.022-.011C7.04 4 8.16 4 10.4 4h11.2c2.24 0 3.36 0 4.216.436a4.035 4.035 0 0 1 1.738 1.726l.011.022c.436.856.436 1.976.436 4.216v11.2c0 2.24 0 3.36-.436 4.216a4.035 4.035 0 0 1-1.726 1.738l-.022.011c-.856.436-1.976.436-4.216.436h-11.2c-2.24 0-3.36 0-4.216-.436a4.027 4.027 0 0 1-1.737-1.726l-.011-.022c-.436-.856-.436-1.976-.436-4.216v-11.2z"/><path fill="none" stroke="#efede8" style="stroke:var(--color3, #efede8)" stroke-linejoin="round" stroke-linecap="round" stroke-width="1.3" d="M12.666 20v-8m6.667 8v-8"/></symbol>
<symbol id="icon-play" viewBox="0 0 32 32"><path fill="#efede8" style="fill:var(--color3, #efede8)" d="M29.333 16 2.666 31.396V.605l26.667 15.396z"/></symbol>
<symbol id="icon-running-figure" viewBox="0 0 32 32"><path fill="#ef8964" style="fill:var(--color2, #ef8964)" d="M29.648 9.451a1.185 1.185 0 0 0-1.671-.147l.002-.002-3.28 2.757-1.51-3.739a1.179 1.179 0 0 0-.229-.364l.001.001a3.237 3.237 0 0 0-1.563-1.608l-.019-.008a3.232 3.232 0 0 0-.982-.262c-.072-.038-.139-.088-.222-.114l-5.776-1.61a1.188 1.188 0 0 0-.921.128l.005-.003a1.16 1.16 0 0 0-.717.664l-.003.008-2.174 5.592a1.186 1.186 0 0 0 .669 1.53l.008.003a1.188 1.188 0 0 0 1.528-.669l.003-.008 1.837-4.723 2.63.731c-.064.104-.133.202-.186.312l-3.371 7.312c-.048.107-.075.216-.11.326l-4.098 6.87-6.859 2.294a1.751 1.751 0 0 0 2.086 2.815l-.005.004 7.019-2.416c.216-.157.371-.362.49-.581.088-.094.189-.168.256-.285l2.443-4.096 4.336 3.696-4.64 5.229a1.751 1.751 0 0 0 2.622 2.322l.002-.002 5.79-6.523c.179-.202.288-.432.36-.675.043-.133.043-.269.053-.406 0-.069.027-.131.021-.195a1.714 1.714 0 0 0-.598-1.272l-.002-.002-3.992-3.403c.288-.274.533-.6.709-.982l2.586-5.6.829 2.208c.031.211.116.398.242.551l-.002-.002c.121.138.273.247.445.314l.008.003c.018.008.038.01.059.016.096.04.208.069.325.08h.005a1.103 1.103 0 0 0 .413-.047l-.008.002h.005c.037-.01.074-.003.11-.019.186-.076.343-.192.464-.337l.002-.002 4.71-3.997c.501-.422.288-1.168-.133-1.667zM23.69 6.602a3.301 3.301 0 0 0 0-6.602 3.301 3.301 0 0 0 0 6.602z"/></symbol>
<symbol id="icon-running-figure-white" viewBox="0 0 32 32"><path fill="#ef8964" style="fill:var(--color2, #efede8)" d="M29.648 9.451a1.185 1.185 0 0 0-1.671-.147l.002-.002-3.28 2.757-1.51-3.739a1.179 1.179 0 0 0-.229-.364l.001.001a3.237 3.237 0 0 0-1.563-1.608l-.019-.008a3.232 3.232 0 0 0-.982-.262c-.072-.038-.139-.088-.222-.114l-5.776-1.61a1.188 1.188 0 0 0-.921.128l.005-.003a1.16 1.16 0 0 0-.717.664l-.003.008-2.174 5.592a1.186 1.186 0 0 0 .669 1.53l.008.003a1.188 1.188 0 0 0 1.528-.669l.003-.008 1.837-4.723 2.63.731c-.064.104-.133.202-.186.312l-3.371 7.312c-.048.107-.075.216-.11.326l-4.098 6.87-6.859 2.294a1.751 1.751 0 0 0 2.086 2.815l-.005.004 7.019-2.416c.216-.157.371-.362.49-.581.088-.094.189-.168.256-.285l2.443-4.096 4.336 3.696-4.64 5.229a1.751 1.751 0 0 0 2.622 2.322l.002-.002 5.79-6.523c.179-.202.288-.432.36-.675.043-.133.043-.269.053-.406 0-.069.027-.131.021-.195a1.714 1.714 0 0 0-.598-1.272l-.002-.002-3.992-3.403c.288-.274.533-.6.709-.982l2.586-5.6.829 2.208c.031.211.116.398.242.551l-.002-.002c.121.138.273.247.445.314l.008.003c.018.008.038.01.059.016.096.04.208.069.325.08h.005a1.103 1.103 0 0 0 .413-.047l-.008.002h.005c.037-.01.074-.003.11-.019.186-.076.343-.192.464-.337l.002-.002 4.71-3.997c.501-.422.288-1.168-.133-1.667zM23.69 6.602a3.301 3.301 0 0 0 0-6.602 3.301 3.301 0 0 0 0 6.602z"/></symbol>
<symbol id="icon-search-loop" viewBox="0 0 32 32"><path fill="none" stroke="#efede8" style="stroke:var(--color3, #efede8)" stroke-linejoin="round" stroke-linecap="round" stroke-width="2.667" d="M14.667 25.333c5.891 0 10.667-4.776 10.667-10.667S20.558 3.999 14.667 3.999v0C8.776 3.999 4 8.775 4 14.666s4.776 10.667 10.667 10.667v0zM28 28l-5.799-5.799"/></symbol>
<symbol id="icon-settings" viewBox="0 0 32 32"><path fill="none" style="stroke:var(--color3, #efede8)" opacity="0.3" stroke-linejoin="round" stroke-linecap="round" stroke-width="2.286" d="M16 20a4 4 0 0 0 0-8v0a4 4 0 0 0 0 8v0z"/>
<path fill="none" stroke="#efede8" style="stroke:var(--color3, #efede8)" opacity="0.3" stroke-linejoin="round" stroke-linecap="round" stroke-width="2.286" d="M24.97 19.637a1.995 1.995 0 0 0 .4 2.206h0l.072.073c.439.439.711 1.045.711 1.715s-.272 1.276-.711 1.715h0c-.439.439-1.045.711-1.715.711s-1.276-.272-1.715-.711h0l-.073-.072a2.003 2.003 0 0 0-2.218-.395l.013-.005a2.002 2.002 0 0 0-1.211 1.829v.206a2.425 2.425 0 0 1-4.85 0v0-.109a2.001 2.001 0 0 0-1.296-1.825l-.014-.005a1.996 1.996 0 0 0-2.206.401h0l-.073.072a2.425 2.425 0 0 1-3.43-3.43l.073-.073a2.003 2.003 0 0 0 .395-2.218l.005.013a2.004 2.004 0 0 0-1.83-1.211h-.206a2.425 2.425 0 0 1 0-4.85v0H5.2a2.001 2.001 0 0 0 1.826-1.296l.005-.014a1.996 1.996 0 0 0-.401-2.206l-.073-.073a2.426 2.426 0 0 1 3.431-3.43l.072.072a2.003 2.003 0 0 0 2.218.395l-.013.005h.097a2.006 2.006 0 0 0 1.213-1.829v-.206a2.424 2.424 0 1 1 4.848 0v.109a2.001 2.001 0 0 0 1.2 1.826l.013.005a1.996 1.996 0 0 0 2.206-.401l.073-.073a2.425 2.425 0 0 1 3.43 3.43v0l-.072.073a2.003 2.003 0 0 0-.395 2.218l-.005-.013v.097a2.002 2.002 0 0 0 1.829 1.211h.206a2.425 2.425 0 0 1 0 4.85v0h-.109a2 2 0 0 0-1.825 1.199l-.005.013z"/></symbol>
<symbol id="icon-sign" viewBox="0 0 32 32"><path fill="none" stroke="#efede8" style="stroke:var(--color3, #efede8)" stroke-linejoin="round" stroke-linecap="round" stroke-width="2.667" d="M16 25.333v.013M16 20V6.667"/></symbol>
<symbol id="icon-trash" viewBox="0 0 32 32"><path stroke-linejoin="round" stroke-linecap="round" stroke-width="2.4" d="M12 4h8m-6.667 10v6.667M18.667 14v6.667M4 8h24m-2.667 0-.934 14.026c-.141 2.104-.211 3.157-.666 3.955a4.026 4.026 0 0 1-1.708 1.609l-.023.01c-.826.4-1.88.4-3.989.4h-4.026c-2.109 0-3.163 0-3.989-.4A4.031 4.031 0 0 1 8.277 26l-.01-.019c-.454-.8-.525-1.851-.666-3.955L6.667 8"/></symbol>
<symbol id="icon-x" viewBox="0 0 32 32"><path fill="none" stroke="#efede8" style="stroke:var(--color3, #efede8)" stroke-linejoin="round" stroke-linecap="round" stroke-width="2.462" d="M24 8 8 24M8 8l16 16"/></symbol>
<symbol id="icon-user" viewBox="0 0 32 32">
<path fill="#efede8" style="fill: var(--color3, #efede8)" opacity="0.1" d="M16 0c2.122 0 4.157 0.843 5.657 2.343s2.343 3.535 2.343 5.657-0.843 4.157-2.343 5.657c-1.5 1.5-3.535 2.343-5.657 2.343s-4.157-0.843-5.657-2.343c-1.5-1.5-2.343-3.535-2.343-5.657s0.843-4.157 2.343-5.657c1.5-1.5 3.535-2.343 5.657-2.343zM16 32c0 0 16 0 16-4 0-4.8-7.8-10-16-10s-16 5.2-16 10c0 4 16 4 16 4z"></path>
</symbol>
<symbol id="icon-x-orange" viewBox="0 0 32 32"><path fill="none" stroke="#e6533c" style="stroke:var(--color1, #e6533c)" stroke-linejoin="round" stroke-linecap="round" stroke-width="3.556" d="M24 8 8 24M8 8l16 16"/></symbol>
<symbol id="icon-chevron-left" viewBox="0 0 32 32">
<path fill="#efede8" style="fill: var(--color1, #efede8)" d="M21.086 1.086l2.828 2.828-11.586 11.586 11.586 11.586-2.828 2.828-14.414-14.414 14.414-14.414z"></path>
</symbol>
<symbol id="icon-chevron-left1" viewBox="0 0 32 32">
<path d="M21.086 1.086l2.828 2.828-11.586 11.586 11.586 11.586-2.828 2.828-14.414-14.414 14.414-14.414z"></path>
</symbol>
<symbol id="icon-chevron-right" viewBox="0 0 19 32">
<path fill="#efede8" style="fill: var(--color1, #efede8)" d="M3.108 31.908l-3.017-3.017 12.358-12.358-12.358-12.358 3.017-3.017 15.375 15.375-15.375 15.375z"></path>
</symbol>
<symbol id="icon-chevron-right1" viewBox="0 0 32 32">
<path d="M10.914 29.914l-2.828-2.828 11.586-11.586-11.586-11.586 2.828-2.828 14.414 14.414-14.414 14.414z"></path>
</symbol>
<symbol id="icon-validation-checkbox-green" viewBox="0 0 32 32">
<path fill="#3cbf61" style="fill: var(--color1, #3cbf61)" d="M16 29.333c-7.364 0-13.333-5.969-13.333-13.333s5.969-13.333 13.333-13.333c7.364 0 13.333 5.969 13.333 13.333s-5.969 13.333-13.333 13.333zM14.459 21.98l9.427-9.428-1.885-1.885-7.541 7.543-3.772-3.772-1.885 1.885 5.657 5.657z"></path>
</symbol>
<symbol id="icon-validation-checkbox-red" viewBox="0 0 32 32">
<path fill="#d80027" style="fill: var(--color2, #d80027)" d="M16 29.333c-7.364 0-13.333-5.969-13.333-13.333s5.969-13.333 13.333-13.333c7.364 0 13.333 5.969 13.333 13.333s-5.969 13.333-13.333 13.333zM14.459 21.98l9.427-9.428-1.885-1.885-7.541 7.543-3.772-3.772-1.885 1.885 5.657 5.657z"></path>
</symbol>
<symbol id="icon-chevron-left" viewBox="0 0 32 32">
<path d="M21.086 1.086l2.828 2.829-11.586 11.586 11.586 11.586-2.828 2.829-14.414-14.414 14.414-14.414z"></path>
</symbol>
<symbol id="icon-chevron-right" viewBox="0 0 32 32">
<path d="M10.914 29.914l-2.828-2.829 11.586-11.586-11.586-11.586 2.829-2.828 14.414 14.414-14.414 14.414z"></path>
</symbol>
<symbol id="icon-calendar" viewBox="0 0 32 32">
<path stroke-linejoin="round" stroke-linecap="round" stroke-miterlimit="4" stroke-width="2.6667" d="M25.333 5.333h-18.667c-1.473 0-2.667 1.194-2.667 2.667v18.667c0 1.473 1.194 2.667 2.667 2.667h18.667c1.473 0 2.667-1.194 2.667-2.667v-18.667c0-1.473-1.194-2.667-2.667-2.667zM21.333 2.667v5.333M10.667 2.667v5.333M4 13.333h24"></path>
</symbol>
<symbol id="icon-logo-dumbbell" viewBox="0 0 83 32">
<path d="M80.941 13.714c1.040 0 1.882 0.843 1.882 1.882v0.807c0 1.040-0.843 1.882-1.882 1.882h-2.151c-1.039 0-1.882 0.843-1.882 1.882v5.378c0 1.040-0.843 1.882-1.882 1.882h-2.151c-1.040 0-1.882 0.843-1.882 1.882v0.807c0 1.040-0.843 1.882-1.882 1.882h-5.109c-1.040 0-1.882-0.843-1.882-1.882v-9.95c0-1.040-0.843-1.882-1.882-1.882h-37.647c-1.040 0-1.882 0.843-1.882 1.882v9.95c0 1.040-0.843 1.882-1.882 1.882h-5.109c-1.040 0-1.882-0.843-1.882-1.882v-0.807c0-1.040-0.843-1.882-1.882-1.882h-2.151c-1.040 0-1.882-0.843-1.882-1.882v-5.378c0-1.040-0.843-1.882-1.882-1.882h-2.152c-1.040 0-1.882-0.843-1.882-1.882v-0.807c0-1.040 0.843-1.882 1.882-1.882h2.151c1.039 0 1.882-0.843 1.882-1.882v-5.378c0-1.040 0.843-1.882 1.882-1.882h2.151c1.040 0 1.882-0.843 1.882-1.882v-0.807c0-1.040 0.843-1.882 1.882-1.882h5.109c1.040 0 1.882 0.843 1.882 1.882v9.95c0 1.040 0.843 1.882 1.882 1.882h37.647c1.040 0 1.882-0.843 1.882-1.882v-9.95c0-1.040 0.843-1.882 1.882-1.882h5.109c1.040 0 1.882 0.843 1.882 1.882v0.807c0 1.040 0.843 1.882 1.882 1.882h2.151c1.040 0 1.882 0.843 1.882 1.882v5.378c0 1.040 0.843 1.882 1.882 1.882h2.151z"></path>
</symbol>
<symbol id="icon-power-pulse" viewBox="0 0 188 32">
<path d="M0 29.873v-26.353h9.412c1.431 0 2.723 0.358 3.878 1.073 1.167 0.715 2.089 1.675 2.767 2.88s1.016 2.529 1.016 3.972c0 1.481-0.351 2.824-1.054 4.028-0.69 1.192-1.619 2.146-2.786 2.861-1.167 0.703-2.441 1.054-3.821 1.054h-4.819v10.485h-4.593zM4.593 14.795h4.329c0.653 0 1.249-0.163 1.788-0.489s0.966-0.766 1.28-1.318c0.326-0.552 0.489-1.167 0.489-1.845 0-0.69-0.163-1.311-0.489-1.864-0.314-0.552-0.74-0.991-1.28-1.318s-1.136-0.489-1.788-0.489h-4.329v7.322zM27.51 30.362c-1.732 0-3.313-0.446-4.744-1.336-1.418-0.891-2.554-2.083-3.407-3.576-0.841-1.506-1.261-3.169-1.261-4.988 0-1.38 0.245-2.667 0.734-3.859 0.489-1.205 1.161-2.259 2.014-3.162 0.866-0.916 1.87-1.631 3.012-2.146s2.359-0.772 3.652-0.772c1.732 0 3.307 0.446 4.725 1.336 1.431 0.891 2.566 2.089 3.407 3.595 0.853 1.506 1.28 3.175 1.28 5.007 0 1.368-0.245 2.648-0.734 3.84s-1.167 2.246-2.033 3.162c-0.853 0.904-1.851 1.613-2.993 2.127-1.129 0.514-2.347 0.772-3.652 0.772zM27.51 25.769c0.916 0 1.738-0.245 2.466-0.734s1.299-1.136 1.713-1.939c0.427-0.803 0.64-1.681 0.64-2.635 0-0.979-0.219-1.87-0.659-2.673-0.427-0.816-1.010-1.462-1.751-1.939-0.728-0.489-1.531-0.734-2.409-0.734-0.904 0-1.719 0.245-2.447 0.734s-1.305 1.142-1.732 1.958c-0.427 0.816-0.64 1.7-0.64 2.654 0 0.991 0.22 1.889 0.659 2.692s1.023 1.443 1.751 1.92c0.741 0.464 1.544 0.696 2.409 0.696zM48.683 29.873h-4.555l-6.287-18.824h4.499l4.085 12.179 4.066-12.179h4.536l4.066 12.179 4.085-12.179h4.499l-6.287 18.824h-4.555l-4.085-12.235-4.066 12.235zM78.025 30.362c-1.732 0-3.313-0.446-4.744-1.336-1.418-0.891-2.554-2.089-3.407-3.595-0.841-1.506-1.261-3.169-1.261-4.988 0-1.368 0.245-2.648 0.734-3.84 0.489-1.205 1.161-2.259 2.014-3.162 0.866-0.916 1.87-1.631 3.012-2.146s2.359-0.772 3.652-0.772c1.468 0 2.811 0.314 4.028 0.941 1.23 0.615 2.271 1.462 3.125 2.541s1.474 2.309 1.864 3.689c0.389 1.38 0.477 2.824 0.264 4.329h-13.76c0.176 0.703 0.464 1.336 0.866 1.901 0.401 0.552 0.91 0.998 1.525 1.336 0.615 0.326 1.311 0.496 2.089 0.508 0.803 0.013 1.531-0.176 2.184-0.565 0.665-0.401 1.217-0.941 1.656-1.619l4.687 1.092c-0.766 1.669-1.908 3.037-3.426 4.104-1.519 1.054-3.219 1.581-5.101 1.581zM73.394 18.579h9.261c-0.138-0.753-0.433-1.431-0.885-2.033-0.439-0.615-0.985-1.104-1.638-1.468s-1.355-0.546-2.108-0.546-1.449 0.182-2.089 0.546c-0.64 0.351-1.186 0.834-1.638 1.449-0.439 0.602-0.741 1.286-0.904 2.052zM90.386 29.873l-0.019-18.824h4.593l0.019 1.675c0.64-0.678 1.406-1.211 2.296-1.6 0.891-0.402 1.851-0.602 2.88-0.602 0.69 0 1.38 0.1 2.071 0.301l-1.807 4.631c-0.477-0.188-0.954-0.282-1.431-0.282-0.74 0-1.418 0.182-2.033 0.546-0.602 0.351-1.086 0.834-1.449 1.449-0.351 0.602-0.527 1.274-0.527 2.014v10.692h-4.593zM104.338 29.873v-26.353h9.412c1.431 0 2.723 0.358 3.878 1.073 1.167 0.715 2.089 1.675 2.767 2.88s1.016 2.529 1.016 3.972c0 1.481-0.351 2.824-1.054 4.028-0.69 1.192-1.619 2.146-2.786 2.861-1.167 0.703-2.441 1.054-3.821 1.054h-4.819v10.485h-4.593zM108.931 14.795h4.329c0.653 0 1.249-0.163 1.788-0.489s0.966-0.766 1.28-1.318c0.326-0.552 0.489-1.167 0.489-1.845 0-0.69-0.163-1.311-0.489-1.864-0.314-0.552-0.74-0.991-1.28-1.318s-1.136-0.489-1.788-0.489h-4.329v7.322zM123.365 22.908v-11.859h4.593v10.654c0 0.74 0.182 1.418 0.546 2.033 0.364 0.602 0.847 1.086 1.449 1.449 0.615 0.351 1.286 0.527 2.014 0.527 0.753 0 1.431-0.176 2.033-0.527 0.602-0.364 1.086-0.847 1.449-1.449 0.364-0.615 0.546-1.293 0.546-2.033v-10.654h4.593l0.019 18.824h-4.593l-0.019-1.713c-0.653 0.678-1.424 1.217-2.315 1.619-0.891 0.389-1.845 0.584-2.861 0.584-1.368 0-2.616-0.333-3.746-0.998-1.129-0.678-2.033-1.575-2.711-2.692-0.665-1.129-0.998-2.384-0.998-3.765zM144.485 29.873v-28.235h4.593v28.235h-4.593zM159.156 30.212c-1.038-0.067-2.006-0.275-2.915-0.607l0.072 0.023c-0.904-0.339-1.707-0.797-2.409-1.374s-1.242-1.267-1.619-2.071l3.878-1.656c0.151 0.251 0.395 0.521 0.734 0.809 0.339 0.276 0.74 0.508 1.205 0.696 0.477 0.188 0.998 0.282 1.562 0.282 0.477 0 0.929-0.063 1.355-0.188 0.439-0.138 0.791-0.345 1.054-0.621 0.276-0.276 0.414-0.634 0.414-1.073 0-0.464-0.163-0.822-0.489-1.073-0.314-0.264-0.715-0.458-1.205-0.584-0.183-0.066-0.65-0.196-1.119-0.317l-0.274-0.060c-1.192-0.238-2.303-0.609-3.332-1.111-1.016-0.502-1.839-1.148-2.466-1.939-0.615-0.803-0.922-1.769-0.922-2.899 0-1.242 0.326-2.315 0.979-3.219 0.665-0.904 1.525-1.6 2.579-2.089 1.067-0.489 2.215-0.734 3.445-0.734 1.493 0 2.861 0.314 4.104 0.941 1.255 0.615 2.246 1.487 2.974 2.616l-3.633 2.146c-0.176-0.301-0.421-0.577-0.734-0.828-0.314-0.264-0.671-0.477-1.073-0.64-0.37-0.167-0.8-0.275-1.251-0.301l-0.010-0c-0.565-0.025-1.079 0.025-1.544 0.151s-0.841 0.339-1.129 0.64c-0.276 0.301-0.414 0.703-0.414 1.205 0 0.477 0.188 0.834 0.565 1.073 0.376 0.226 0.828 0.401 1.355 0.527 0.539 0.126 1.054 0.264 1.544 0.414 1.104 0.364 2.139 0.809 3.106 1.336 0.979 0.527 1.763 1.173 2.353 1.939s0.872 1.681 0.847 2.748c0 1.217-0.364 2.284-1.092 3.2-0.728 0.904-1.669 1.594-2.824 2.071-1.142 0.477-2.366 0.665-3.671 0.565zM177.951 30.362c-1.732 0-3.313-0.446-4.744-1.336-1.418-0.891-2.554-2.089-3.407-3.595-0.841-1.506-1.261-3.169-1.261-4.988 0-1.368 0.245-2.648 0.734-3.84 0.489-1.205 1.161-2.259 2.014-3.162 0.866-0.916 1.87-1.631 3.012-2.146s2.359-0.772 3.652-0.772c1.468 0 2.811 0.314 4.028 0.941 1.23 0.615 2.271 1.462 3.125 2.541s1.475 2.309 1.864 3.689c0.389 1.38 0.477 2.824 0.264 4.329h-13.76c0.176 0.703 0.464 1.336 0.866 1.901 0.402 0.552 0.91 0.998 1.525 1.336 0.615 0.326 1.311 0.496 2.089 0.508 0.803 0.013 1.531-0.176 2.184-0.565 0.665-0.401 1.217-0.941 1.656-1.619l4.687 1.092c-0.766 1.669-1.907 3.037-3.426 4.104-1.518 1.054-3.219 1.581-5.101 1.581zM173.321 18.579h9.261c-0.138-0.753-0.433-1.431-0.885-2.033-0.439-0.615-0.985-1.104-1.638-1.468s-1.355-0.546-2.108-0.546-1.449 0.182-2.089 0.546c-0.64 0.351-1.186 0.834-1.638 1.449-0.439 0.602-0.74 1.286-0.904 2.052z"></path>
</symbol>
<symbol id="icon-arrow-left" viewBox="0 0 32 32">
<path stroke-linejoin="round" stroke-linecap="round" stroke-miterlimit="4" stroke-width="2.6" d="M17 28l-13-13M4 15l13-13M4 15h26"></path>
</symbol>
<symbol id="icon-eye" viewBox="0 0 24 24">
<path fill="none" stroke="#505050" style="stroke: #505050" stroke-linejoin="round" stroke-linecap="round" stroke-miterlimit="4" stroke-width="2.16" d="M1 12c0 0 4-8 11-8s11 8 11 8-4 8-11 8c-7 0-11-8-11-8z"></path>
<path fill="none" stroke="#505050" style="stroke: #505050" stroke-linejoin="round" stroke-linecap="round" stroke-miterlimit="4" stroke-width="2.16" d="M12 15c1.657 0 3-1.343 3-3s-1.343-3-3-3c-1.657 0-3 1.343-3 3s1.343 3 3 3z"></path>
</symbol>
<symbol id="icon-eye-off" viewBox="0 0 24 24">
<path fill="none" stroke="#505050" style="stroke: #505050" stroke-linejoin="round" stroke-linecap="round" stroke-miterlimit="4" stroke-width="2.16" d="M17.94 17.94c-1.709 1.303-3.791 2.025-5.94 2.060-7 0-11-8-11-8 1.244-2.318 2.969-4.343 5.060-5.94M9.9 4.24c0.688-0.161 1.393-0.242 2.1-0.24 7 0 11 8 11 8-0.607 1.136-1.331 2.205-2.16 3.19M14.12 14.12c-0.275 0.295-0.606 0.531-0.974 0.695s-0.765 0.252-1.168 0.259c-0.403 0.007-0.803-0.067-1.176-0.218s-0.713-0.375-0.998-0.66c-0.285-0.285-0.509-0.624-0.66-0.998s-0.225-0.774-0.218-1.176c0.007-0.403 0.095-0.8 0.259-1.168s0.4-0.699 0.695-0.974"></path>
<path fill="none" stroke="#505050" style="stroke: #505050" stroke-linejoin="round" stroke-linecap="round" stroke-miterlimit="4" stroke-width="2.16" d="M1 1l22 22"></path>
</symbol>
<symbol id="icon-users" viewBox="0 0 36 32">
<path d="M24 24.082v-1.649c2.203-1.241 4-4.337 4-7.432 0-4.971 0-9-6-9s-6 4.029-6 9c0 3.096 1.797 6.191 4 7.432v1.649c-6.784 0.555-12 3.888-12 7.918h28c0-4.030-5.216-7.364-12-7.918z"></path>
<path d="M10.225 24.854c1.728-1.13 3.877-1.989 6.243-2.513-0.47-0.556-0.897-1.176-1.265-1.844-0.95-1.726-1.453-3.627-1.453-5.497 0-2.689 0-5.228 0.956-7.305 0.928-2.016 2.598-3.265 4.976-3.734-0.529-2.39-1.936-3.961-5.682-3.961-6 0-6 4.029-6 9 0 3.096 1.797 6.191 4 7.432v1.649c-6.784 0.555-12 3.888-12 7.918h8.719c0.454-0.403 0.956-0.787 1.506-1.146z"></path>
</symbol>
</defs></svg>