
<svg aria-hidden="true" style="position:absolute;width:0;height:0;overflow:hidden" xmlns="http://www.w3.org/2000/svg">
  <defs>
    <symbol id="icon-add-arrow" viewBox="0 0 32 32">
      <path fill="none" stroke="#e6533c" style="stroke:var(--color1, #e6533c)" stroke-linejoin="round" stroke-linecap="round" stroke-width="2.7733" d="M16 29.867 29.867 16m0 0L16 2.133M29.867 16H2.134"/>
    </symbol>
    <symbol id="icon-apple" viewBox="0 0 32 32">
      <path fill="#ef8964" style="fill:var(--color2, #ef8964)" d="M19.454 4.758c.32-.109.546-.407.546-.758 0-.442-.358-.8-.8-.8-.091 0-.178.015-.259.043l.006-.002c-1.501.499-2.435 1.731-2.986 3.051-.054.121-.123.301-.185.483l-.018.059c-.719-1.345-1.864-2.384-3.253-2.948l-.043-.015c-.699-.286-1.51-.452-2.36-.452-.065 0-.13.001-.195.003h.009c-.928.026-1.669.768-1.694 1.694-.002.055-.003.12-.003.185 0 1.765.716 3.363 1.875 4.519l.05.048c-2.738.608-4.793 2.908-5.026 5.724l-.002.023-.01.118c-.028.325-.043.704-.043 1.087 0 2.387.615 4.63 1.695 6.58l-.035-.07.576 1.053c.016.027.032.054.051.08l1.6 2.243c.789 1.095 2.061 1.799 3.496 1.799 1.186 0 2.26-.481 3.038-1.258.132-.132.314-.214.516-.214s.384.082.516.214c.777.778 1.852 1.259 3.038 1.259 1.436 0 2.707-.705 3.487-1.787l.009-.013 1.6-2.242a.65.65 0 0 0 .049-.078l.002-.004.574-1.053c1.045-1.88 1.659-4.123 1.659-6.51 0-.382-.016-.761-.047-1.136l.003.049-.008-.118c-.271-3.308-3.022-5.889-6.377-5.889-.373 0-.738.032-1.093.093l.038-.005-2.651.442c.016-1.09.208-2.315.638-3.349.448-1.08 1.114-1.848 2.013-2.149h.002zm-8.4 9.6c-.503.162-.907.508-1.142.957l-.005.011c-.296.557-.499 1.475-.312 2.974.003.024.004.052.004.08 0 .442-.358.8-.8.8-.4 0-.732-.294-.791-.678l-.001-.004c-.213-1.702-.016-2.984.488-3.926.512-.96 1.291-1.478 2.053-1.733a.7802.7802 0 0 1 .253-.041c.442 0 .8.358.8.8 0 .351-.227.65-.542.758l-.006.002z"/>
    </symbol>
    <symbol id="icon-arrow-modal" viewBox="0 0 32 32">
      <path fill="none" stroke="#505050" style="stroke:var(--color3, #505050)" stroke-linejoin="round" stroke-linecap="round" stroke-width="2.6" d="m15 28 13-13m0 0L15 2m13 13H2"/>
    </symbol>
    <symbol id="icon-bubble" viewBox="0 0 32 32">
      <path fill="#ef8964" style="fill:var(--color2, #ef8964)" d="M20.794 16.346c3.778 0 6.84-3.062 6.84-6.84s-3.062-6.84-6.84-6.84-6.84 3.062-6.84 6.84 3.062 6.84 6.84 6.84zM8.475 25.92c2.268 0 4.107-1.839 4.107-4.107s-1.839-4.107-4.107-4.107c-2.233.045-4.026 1.867-4.026 4.106s1.793 4.061 4.022 4.106h.004zm13.675 3.413c1.885 0 3.414-1.528 3.414-3.414s-1.528-3.414-3.414-3.414c-1.885 0-3.414 1.528-3.414 3.414s1.528 3.414 3.414 3.414z"/>
    </symbol>
    <symbol id="icon-burger-menu" viewBox="0 0 32 32">
      <path fill="none" stroke="#e6533c" style="stroke:var(--color1, #e6533c)" stroke-linejoin="round" stroke-linecap="round" stroke-width="2" d="M4 16h16M4 8h24M4 24h24"/>
    </symbol>
    <symbol id="icon-calendar-bage" viewBox="0 0 32 32">
      <path fill="none" stroke="#ef8964" style="stroke:var(--color2, #ef8964)" stroke-linejoin="round" stroke-linecap="round" stroke-width="2.6667" d="M25.333 5.333H6.666C5.193 5.333 3.999 6.527 3.999 8v18.667c0 1.473 1.194 2.667 2.667 2.667v0h18.667c1.473 0 2.667-1.194 2.667-2.667v0V8c0-1.473-1.194-2.667-2.667-2.667v0zm-4-2.666V8M10.667 2.667V8M4 13.333h24"/>
    </symbol>
    <symbol id="icon-calendar-withe" viewBox="0 0 32 32">
      <path fill="none" stroke="#efede8" style="stroke:var(--color3, #efede8)" stroke-linejoin="round" stroke-linecap="round" stroke-width="2.6667" d="M25.333 5.333H6.666C5.193 5.333 3.999 6.527 3.999 8v18.667c0 1.473 1.194 2.667 2.667 2.667v0h18.667c1.473 0 2.667-1.194 2.667-2.667v0V8c0-1.473-1.194-2.667-2.667-2.667v0zm-4-2.666V8M10.667 2.667V8M4 13.333h24"/>
    </symbol>
    <symbol id="icon-calories" viewBox="0 0 32 32">
      <path fill="#ef8964" style="fill:var(--color2, #ef8964)" d="M16 22.291c-.944.72-2.896 2.501-2.896 4.925 0 1.602 1.299 2.904 2.896 2.904s2.896-1.302 2.896-2.904c0-2.296-1.952-4.16-2.896-4.925z"/>
      <path fill="#ef8964" style="fill:var(--color2, #ef8964)" d="M22.789 5.57a.9336.9336 0 0 0-.701-.316c-.247 0-.472.096-.639.252h.001l-4.413 4.117V.999c0-.72-.869-1.259-1.52-.864-.125.074-3.058 1.862-6.021 5.114-3.6 3.952-6.054 8.765-6.054 14.163C3.444 26.354 9.076 32.001 16 32.001c-2.637-.007-4.771-2.146-4.771-4.784 0-4.261 4.138-6.784 4.314-6.891a.9279.9279 0 0 1 .48-.132c.192 0 .37.058.519.157l-.003-.002c.173.114 4.234 2.838 4.234 6.869 0 2.638-2.135 4.777-4.77 4.784h-.001c6.923 0 12.557-5.648 12.557-12.587 0-5.242-2.312-9.938-5.768-13.843z"/>
    </symbol>
    <symbol id="icon-check-mark" viewBox="0 0 33 32">
      <path fill="#e6533c" style="fill:var(--color1, #e6533c)" d="m11.238.428 4.69 1.356c.34.098.7.099 1.039.002l4.83-1.375c.154-.046.332-.072.515-.072.708 0 1.325.391 1.646.969l.005.01 2.506 4.577c.168.307.419.561.724.734l3.986 2.258c.574.33.954.939.954 1.638 0 .2-.031.393-.089.574l.004-.013-1.38 4.428c-.054.168-.085.361-.085.561 0 .198.031.389.087.568l-.004-.013 1.394 4.521c.053.166.084.357.084.555 0 .69-.371 1.293-.924 1.62l-.009.005-4.443 2.598c-.303.177-.55.435-.715.746l-2.113 4.004c-.322.601-.946 1.003-1.664 1.003-.171 0-.336-.023-.494-.065l.013.003-4.864-1.284c-.144-.04-.309-.062-.48-.062-.173 0-.341.023-.501.067l.013-.003-4.713 1.264c-.146.041-.315.064-.488.064-.735 0-1.372-.422-1.682-1.037l-.005-.011-2.106-4.256c-.181-.36-.461-.646-.806-.829l-.01-.005-4.305-2.247c-.606-.321-1.012-.947-1.012-1.669 0-.178.025-.351.071-.514l-.003.013 1.256-4.548c.089-.322.09-.662.004-.985L.877 10.737c-.04-.145-.063-.312-.063-.484 0-.704.386-1.317.958-1.64l.009-.005 4.422-2.46c.321-.178.584-.447.754-.774l2.09-4.006C9.368.762 9.994.356 10.716.356c.186 0 .366.027.536.077L11.239.43z"/>
      <path fill="none" stroke="#efede8" style="stroke:var(--color3, #efede8)" stroke-linejoin="round" stroke-linecap="round" stroke-width="2" d="M16.5 10.75v10.5M11.25 16h10.5"/>
    </symbol>
    <symbol id="icon-dumbbell" viewBox="0 0 32 32">
      <path fill="#ef8964" style="fill:var(--color2, #ef8964)" d="M5.2 8H2.797C2.136 8 1.6 8.536 1.6 9.197V14.4H.4c-.221 0-.4.179-.4.4v2.4c0 .219.181.4.4.4h1.2v5.2c0 .666.534 1.2 1.2 1.2h2.4c.666 0 1.2-.534 1.2-1.2V9.197C6.4 8.536 5.864 8 5.203 8H5.2zm26.4 6.4h-1.2V9.197C30.4 8.536 29.864 8 29.203 8h-2.406c-.661 0-1.197.536-1.197 1.197V22.8c0 .666.534 1.2 1.2 1.2h2.4c.666 0 1.2-.534 1.2-1.2v-5.2h1.2c.221 0 .4-.179.4-.4v-2.4c0-.221-.179-.4-.4-.4zm-8.8-9.6h-2.403c-.661 0-1.197.536-1.197 1.197V14.4h-6.4V5.997c0-.661-.536-1.197-1.197-1.197H9.197C8.536 4.8 8 5.336 8 5.997V26c0 .666.534 1.2 1.2 1.2h2.4c.666 0 1.2-.534 1.2-1.2v-8.4h6.4V26c0 .666.534 1.2 1.2 1.2h2.4c.666 0 1.2-.534 1.2-1.2V5.997c0-.661-.536-1.197-1.197-1.197H22.8z"/>
    </symbol>
    <symbol id="icon-fork-knife" viewBox="0 0 32 32">
      <path fill="#ef8964" style="fill:var(--color2, #ef8964)" d="M24 4c.682 0 1.244.511 1.324 1.171l.001.006.008.155v21.334c-.015.725-.607 1.307-1.334 1.307-.673 0-1.229-.498-1.321-1.145l-.001-.007-.01-.155v-6.667h-1.334c-.681 0-1.243-.512-1.323-1.171l-.001-.006-.01-.155v-8c0-2.947 2-6.667 4-6.667zm-8 0c.682 0 1.244.511 1.324 1.171l.001.006.008.155v6.667c-.001 2.472-1.682 4.551-3.963 5.156l-.037.008v9.502c-.002.734-.598 1.328-1.333 1.328-.68 0-1.241-.509-1.323-1.167l-.001-.006-.01-.155v-9.502c-2.23-.59-3.869-2.532-3.995-4.876l-.001-.013-.005-.275V5.332c.003-.734.598-1.328 1.333-1.328.68 0 1.241.509 1.323 1.167l.001.006.01.155v6.667c.001.982.531 1.839 1.322 2.302l.013.007V5.332c.002-.734.598-1.328 1.333-1.328.68 0 1.241.509 1.323 1.167l.001.006.01.155.002 8.976c.738-.432 1.245-1.191 1.322-2.073l.001-.01.01-.226V5.332c0-.736.597-1.333 1.333-1.333z"/>
    </symbol>
    <symbol id="icon-line" viewBox="0 0 32 32">
      <path fill="none" stroke="#ef8964" style="stroke:var(--color2, #ef8964)" stroke-linejoin="round" stroke-linecap="round" stroke-width=".3422" d="M22.527 10.267c-7.533.111-23.984 1.444-22.225 8.23 1.581 4.791 24.105 3.762 29.662.157s-2.075-7.357-12.713-6.028"/>
    </symbol>
    <symbol id="icon-line-mobile" viewBox="0 0 32 32">
      <path fill="none" stroke="#ef8964" style="stroke:var(--color2, #ef8964)" stroke-linejoin="round" stroke-linecap="round" stroke-width=".64" d="M22.465 10.4c-7.462.108-23.758 1.411-22.016 8.039 1.566 4.68 23.878 3.675 29.383.153s-2.055-7.187-12.594-5.889"/>
    </symbol>
    <symbol id="icon-logo-large-img" viewBox="0 0 32 32">
      <path fill="#e6533c" style="fill:var(--color1, #e6533c)" d="M31.273 15.117c.402 0 .727.326.727.727v.311a.727.727 0 0 1-.727.727h-.831a.727.727 0 0 0-.727.727v2.078a.727.727 0 0 1-.727.727h-.831a.727.727 0 0 0-.727.727v.312a.727.727 0 0 1-.727.727h-1.974a.727.727 0 0 1-.727-.727v-3.844a.727.727 0 0 0-.727-.727H8.73a.727.727 0 0 0-.727.727v3.844a.727.727 0 0 1-.727.727H5.302a.727.727 0 0 1-.727-.727v-.312a.727.727 0 0 0-.727-.727h-.831a.727.727 0 0 1-.727-.727v-2.078a.727.727 0 0 0-.727-.727H.732a.727.727 0 0 1-.727-.727v-.311c0-.402.326-.727.727-.727h.831a.727.727 0 0 0 .727-.727v-2.078c0-.402.326-.727.727-.727h.831a.727.727 0 0 0 .727-.727v-.312c0-.402.326-.727.727-.727h1.974c.402 0 .727.326.727.727v3.844c0 .402.326.727.727.727h14.545a.727.727 0 0 0 .727-.727v-3.844c0-.402.326-.727.727-.727h1.974c.402 0 .727.326.727.727v.312c0 .402.326.727.727.727h.831c.402 0 .727.326.727.727v2.078c0 .402.326.727.727.727h.831z"/>
    </symbol>
    <symbol id="icon-logo-large-text" viewBox="0 0 32 32">
      <path fill="#efede8" style="fill:var(--color3, #efede8)" d="M0 18.262v-4.297h1.608c.244 0 .465.059.662.175.199.116.357.273.472.469s.174.412.174.647c0 .242-.06.46-.18.657-.119.194-.279.351-.469.463l-.006.003c-.199.115-.417.172-.653.172H.785v1.709H.001zm.784-2.459h.748c.219 0 .41-.117.515-.292l.002-.003c.056-.09.083-.19.083-.3 0-.113-.028-.214-.083-.304a.6002.6002 0 0 0-.517-.295H.785v1.194zm3.915 2.538c-.296 0-.566-.073-.81-.218a1.6918 1.6918 0 0 1-.578-.575l-.004-.008a1.567 1.567 0 0 1-.216-.797v-.017.001c0-.225.042-.435.125-.629a1.61 1.61 0 0 1 .344-.515c.144-.145.314-.263.504-.346l.01-.004c.181-.079.392-.126.614-.126h.01-.001c.296 0 .565.073.807.218s.439.342.578.579l.004.008c.146.245.219.517.219.816 0 .223-.042.432-.125.626s-.199.366-.347.515c-.146.147-.316.263-.511.347-.18.079-.39.126-.611.126h-.014.001zm0-.748c.157 0 .297-.04.421-.119s.222-.185.293-.316c.073-.131.109-.274.109-.43 0-.16-.038-.305-.113-.436a.8408.8408 0 0 0-.295-.314l-.004-.002a.74.74 0 0 0-.406-.12h-.015a.755.755 0 0 0-.412.122l.003-.002a.8784.8784 0 0 0-.294.315l-.002.005c-.073.133-.109.277-.109.433v.009c0 .312.163.586.408.741l.004.002c.126.075.263.113.411.113zm3.617.669h-.778l-1.074-3.069h.768l.698 1.986.695-1.986H9.4l.695 1.986.698-1.986h.768l-1.074 3.069h-.778l-.698-1.995-.695 1.995zm5.011.079c-.296 0-.566-.073-.81-.218-.241-.146-.438-.343-.578-.578l-.004-.008a1.567 1.567 0 0 1-.216-.797v-.017.001c0-.223.042-.432.125-.626.084-.197.198-.368.344-.515.144-.145.314-.263.504-.346l.01-.004c.181-.079.392-.126.614-.126h.01-.001c.251 0 .48.051.688.153.21.1.388.238.534.414s.252.377.318.602c.066.225.081.46.045.706h-2.35c.03.115.08.218.148.31.068.09.155.162.26.218.105.053.224.081.357.083.137.002.261-.029.373-.092a.8401.8401 0 0 0 .283-.264l.8.178c-.135.276-.334.502-.579.665l-.006.004c-.259.172-.55.258-.871.258zm-.791-1.921h1.582a.7654.7654 0 0 0-.152-.333l.001.002a.845.845 0 0 0-.275-.237l-.004-.002a.7453.7453 0 0 0-.356-.089h-.005c-.129 0-.247.03-.357.089a.845.845 0 0 0-.433.565l-.001.006zm2.903 1.842-.003-3.069h.784l.003.273c.109-.11.24-.197.392-.261.152-.065.316-.098.492-.098.118 0 .236.016.354.049l-.308.755a.6678.6678 0 0 0-.245-.046h-.007c-.247 0-.463.129-.586.323l-.002.003c-.06.098-.09.208-.09.328v1.743h-.785zm2.383 0v-4.297h1.608c.244 0 .465.059.662.175.199.116.357.273.473.469s.174.412.174.647c0 .242-.06.46-.18.657-.119.194-.279.351-.47.463l-.006.003c-.199.115-.417.172-.652.172h-.823v1.709h-.784zm.784-2.459h.748c.219 0 .41-.117.515-.292l.002-.003c.055-.09.084-.19.084-.3 0-.113-.028-.214-.084-.304a.6002.6002 0 0 0-.517-.295h-.747v1.194zm2.466 1.323v-1.933h.784v1.737c0 .121.031.231.094.332.062.098.144.177.247.236.105.057.22.086.344.086.129 0 .245-.029.347-.086a.7102.7102 0 0 0 .248-.236c.062-.1.093-.211.093-.332v-1.737h.784l.003 3.069h-.784l-.003-.279c-.111.109-.242.198-.387.261l-.008.003c-.152.064-.315.095-.489.095h-.014c-.23 0-.445-.06-.632-.166l.006.003a1.319 1.319 0 0 1-.46-.433l-.003-.005a1.1358 1.1358 0 0 1-.171-.602v-.013.001zm3.607 1.136v-4.603h.784v4.603h-.784zm2.506.055a1.8575 1.8575 0 0 1-.498-.099l.013.004a1.4664 1.4664 0 0 1-.415-.226l.003.002a.9747.9747 0 0 1-.274-.332l-.003-.006.662-.27c.026.041.067.085.125.132.058.045.126.083.206.114.081.031.17.046.267.046.082 0 .159-.01.232-.03.075-.023.135-.057.18-.101a.2293.2293 0 0 0 .071-.167V17.366c0-.067-.033-.127-.083-.164h-.001a.516.516 0 0 0-.202-.095l-.003-.001a5.585 5.585 0 0 0-.238-.061c-.214-.041-.405-.103-.584-.187l.015.006a1.2141 1.2141 0 0 1-.42-.314l-.001-.002c-.105-.131-.157-.289-.157-.473 0-.203.055-.378.167-.525.115-.147.263-.263.433-.338l.007-.003c.182-.08.379-.12.588-.12.255 0 .489.052.701.154.214.1.384.242.508.427l-.62.35a.4968.4968 0 0 0-.124-.134l-.001-.001a.6695.6695 0 0 0-.183-.104.6332.6332 0 0 0-.214-.049h-.002c-.096-.004-.184.004-.263.025a.4123.4123 0 0 0-.193.104.2694.2694 0 0 0-.071.183v.015-.001c0 .078.032.136.096.175.064.037.142.066.231.086.093.02.18.043.264.067.189.059.366.132.531.218.167.086.301.191.402.316s.149.274.144.448c0 .199-.062.372-.187.522-.124.148-.285.26-.482.338-.195.078-.404.108-.627.092zm3.211.024c-.296 0-.566-.073-.811-.218-.241-.146-.437-.343-.577-.578l-.004-.008c-.136-.228-.216-.504-.216-.798v-.017.001c0-.223.042-.432.125-.626.084-.197.198-.368.344-.515.144-.145.314-.263.504-.346l.01-.004c.181-.079.392-.126.614-.126h.011-.001c.251 0 .48.051.688.153.21.1.388.238.533.414s.252.377.318.602c.066.225.082.46.045.706h-2.35c.03.115.079.218.148.31.068.09.155.162.26.218.105.053.224.081.357.083.137.002.261-.029.373-.092a.8401.8401 0 0 0 .283-.264l.801.178c-.135.276-.334.502-.579.665l-.006.004c-.259.172-.549.258-.871.258zm-.791-1.921h1.582a.7654.7654 0 0 0-.152-.333l.001.002a.845.845 0 0 0-.275-.237l-.004-.002a.7453.7453 0 0 0-.356-.089h-.005c-.129 0-.248.03-.357.089-.219.117-.379.321-.433.565l-.001.006z"/>
    </symbol>
    <symbol id="icon-logo-small-img" viewBox="0 0 32 32">
      <path fill="#e6533c" style="fill:var(--color1, #e6533c)" d="M31.174 15.174c.456 0 .826.37.826.826s-.37.826-.826.826h-.571a.889.889 0 0 0-.889.889v1.524a.889.889 0 0 1-.889.889h-.572c-.456 0-.825.369-.826.825 0 .456-.369.825-.825.826h-1.715a.889.889 0 0 1-.889-.889v-3.174a.889.889 0 0 0-.889-.889H8.887a.889.889 0 0 0-.889.889v3.174a.889.889 0 0 1-.889.889H5.394c-.456 0-.825-.37-.825-.826 0-.456-.37-.825-.826-.825h-.572a.889.889 0 0 1-.889-.889v-1.524a.889.889 0 0 0-.889-.889h-.57c-.456 0-.826-.37-.826-.826s.37-.826.826-.826h.571a.889.889 0 0 0 .889-.889v-1.524c0-.491.398-.889.889-.889h.572c.455-.001.824-.369.825-.824 0-.456.37-.826.825-.826h1.715c.491 0 .889.398.889.889v3.174c0 .491.398.889.889.889h14.222a.889.889 0 0 0 .889-.889V11.11c0-.491.398-.889.889-.889h1.715c.455 0 .825.37.825.826s.37.825.826.825h.572c.491 0 .889.398.889.889v1.524c0 .491.398.889.889.889h.571z"/>
    </symbol>
    <symbol id="icon-logo-small-text" viewBox="0 0 32 32">
      <path fill="#efede8" style="fill:var(--color3, #efede8)" d="M0 18.262v-4.297h1.608c.244 0 .465.059.662.175.199.116.357.273.472.469s.174.412.174.647c0 .242-.06.46-.18.657-.119.194-.279.351-.469.463l-.006.003c-.199.115-.417.172-.653.172H.785v1.709H.001zm.784-2.459h.748c.219 0 .41-.117.515-.292l.002-.003c.056-.09.083-.19.083-.3 0-.113-.028-.214-.083-.304a.6002.6002 0 0 0-.517-.295H.785v1.194zm3.915 2.538c-.296 0-.566-.073-.81-.218a1.6918 1.6918 0 0 1-.578-.575l-.004-.008a1.567 1.567 0 0 1-.216-.797v-.017.001c0-.225.042-.435.125-.629a1.61 1.61 0 0 1 .344-.515c.144-.145.314-.263.504-.346l.01-.004c.181-.079.392-.126.614-.126h.01-.001c.296 0 .565.073.807.218s.439.342.578.579l.004.008c.146.245.219.517.219.816 0 .223-.042.432-.125.626s-.199.366-.347.515c-.146.147-.316.263-.511.347-.18.079-.39.126-.611.126h-.014.001zm0-.748c.157 0 .297-.04.421-.119s.222-.185.293-.316c.073-.131.109-.274.109-.43 0-.16-.038-.305-.113-.436a.8408.8408 0 0 0-.295-.314l-.004-.002a.74.74 0 0 0-.406-.12h-.015a.755.755 0 0 0-.412.122l.003-.002a.8784.8784 0 0 0-.294.315l-.002.005c-.073.133-.109.277-.109.433v.009c0 .312.163.586.408.741l.004.002c.126.075.263.113.411.113zm3.617.669h-.778l-1.074-3.069h.768l.698 1.986.695-1.986H9.4l.695 1.986.698-1.986h.768l-1.074 3.069h-.778l-.698-1.995-.695 1.995zm5.011.079c-.296 0-.566-.073-.81-.218-.241-.146-.438-.343-.578-.578l-.004-.008a1.567 1.567 0 0 1-.216-.797v-.017.001c0-.223.042-.432.125-.626.084-.197.198-.368.344-.515.144-.145.314-.263.504-.346l.01-.004c.181-.079.392-.126.614-.126h.01-.001c.251 0 .48.051.688.153.21.1.388.238.534.414s.252.377.318.602c.066.225.081.46.045.706h-2.35c.03.115.08.218.148.31.068.09.155.162.26.218.105.053.224.081.357.083.137.002.261-.029.373-.092a.8401.8401 0 0 0 .283-.264l.8.178c-.135.276-.334.502-.579.665l-.006.004c-.259.172-.55.258-.871.258zm-.791-1.921h1.582a.7654.7654 0 0 0-.152-.333l.001.002a.845.845 0 0 0-.275-.237l-.004-.002a.7453.7453 0 0 0-.356-.089h-.005c-.129 0-.247.03-.357.089a.845.845 0 0 0-.433.565l-.001.006zm2.903 1.842-.003-3.069h.784l.003.273c.109-.11.24-.197.392-.261.152-.065.316-.098.492-.098.118 0 .236.016.354.049l-.308.755a.6678.6678 0 0 0-.245-.046h-.007c-.247 0-.463.129-.586.323l-.002.003c-.06.098-.09.208-.09.328v1.743h-.785zm2.383 0v-4.297h1.608c.244 0 .465.059.662.175.199.116.357.273.473.469s.174.412.174.647c0 .242-.06.46-.18.657-.119.194-.279.351-.47.463l-.006.003c-.199.115-.417.172-.652.172h-.823v1.709h-.784zm.784-2.459h.748c.219 0 .41-.117.515-.292l.002-.003c.055-.09.084-.19.084-.3 0-.113-.028-.214-.084-.304a.6002.6002 0 0 0-.517-.295h-.747v1.194zm2.466 1.323v-1.933h.784v1.737c0 .121.031.231.094.332.062.098.144.177.247.236.105.057.22.086.344.086.129 0 .245-.029.347-.086a.7102.7102 0 0 0 .248-.236c.062-.1.093-.211.093-.332v-1.737h.784l.003 3.069h-.784l-.003-.279c-.111.109-.242.198-.387.261l-.008.003c-.152.064-.315.095-.489.095h-.014c-.23 0-.445-.06-.632-.166l.006.003a1.319 1.319 0 0 1-.46-.433l-.003-.005a1.1358 1.1358 0 0 1-.171-.602v-.013.001zm3.607 1.136v-4.603h.784v4.603h-.784zm2.506.055a1.8575 1.8575 0 0 1-.498-.099l.013.004a1.4664 1.4664 0 0 1-.415-.226l.003.002a.9747.9747 0 0 1-.274-.332l-.003-.006.662-.27c.026.041.067.085.125.132.058.045.126.083.206.114.081.031.17.046.267.046.082 0 .159-.01.232-.03.075-.023.135-.057.18-.101a.2293.2293 0 0 0 .071-.167V17.366c0-.067-.033-.127-.083-.164h-.001a.516.516 0 0 0-.202-.095l-.003-.001a5.585 5.585 0 0 0-.238-.061c-.214-.041-.405-.103-.584-.187l.015.006a1.2141 1.2141 0 0 1-.42-.314l-.001-.002c-.105-.131-.157-.289-.157-.473 0-.203.055-.378.167-.525.115-.147.263-.263.433-.338l.007-.003c.182-.08.379-.12.588-.12.255 0 .489.052.701.154.214.1.384.242.508.427l-.62.35a.4968.4968 0 0 0-.124-.134l-.001-.001a.6695.6695 0 0 0-.183-.104.6332.6332 0 0 0-.214-.049h-.002c-.096-.004-.184.004-.263.025a.4123.4123 0 0 0-.193.104.2694.2694 0 0 0-.071.183v.015-.001c0 .078.032.136.096.175.064.037.142.066.231.086.093.02.18.043.264.067.189.059.366.132.531.218.167.086.301.191.402.316s.149.274.144.448c0 .199-.062.372-.187.522-.124.148-.285.26-.482.338-.195.078-.404.108-.627.092zm3.211.024c-.296 0-.566-.073-.811-.218-.241-.146-.437-.343-.577-.578l-.004-.008c-.136-.228-.216-.504-.216-.798v-.017.001c0-.223.042-.432.125-.626.084-.197.198-.368.344-.515.144-.145.314-.263.504-.346l.01-.004c.181-.079.392-.126.614-.126h.011-.001c.251 0 .48.051.688.153.21.1.388.238.533.414s.252.377.318.602c.066.225.082.46.045.706h-2.35c.03.115.079.218.148.31.068.09.155.162.26.218.105.053.224.081.357.083.137.002.261-.029.373-.092a.8401.8401 0 0 0 .283-.264l.801.178c-.135.276-.334.502-.579.665l-.006.004c-.259.172-.549.258-.871.258zm-.791-1.921h1.582a.7654.7654 0 0 0-.152-.333l.001.002a.845.845 0 0 0-.275-.237l-.004-.002a.7453.7453 0 0 0-.356-.089h-.005c-.129 0-.248.03-.357.089-.219.117-.379.321-.433.565l-.001.006z"/>
    </symbol>
    <symbol id="icon-log-out" viewBox="0 0 32 32">
      <path fill="none" stroke="#e6533c" style="stroke:var(--color1, #e6533c)" stroke-linejoin="round" stroke-linecap="round" stroke-width="2.4" d="M12 4h-1.6c-2.24 0-3.36 0-4.216.435-.756.391-1.358.992-1.738 1.727l-.011.022C4 7.04 4 8.16 4 10.4v11.2c0 2.24 0 3.36.435 4.216.391.756.992 1.357 1.726 1.737l.022.011c.856.437 1.976.437 4.216.437h1.6m9.334-5.334L28 16m0 0-6.667-6.667M28 16H12"/>
    </symbol>
    <symbol id="icon-log-out-white" viewBox="0 0 32 32">
      <path fill="none" stroke="#efede8" style="stroke:var(--color3, #efede8)" stroke-linejoin="round" stroke-linecap="round" stroke-width="2.4" d="M12 4h-1.6c-2.24 0-3.36 0-4.216.435-.756.391-1.358.992-1.738 1.727l-.011.022C4 7.04 4 8.16 4 10.4v11.2c0 2.24 0 3.36.435 4.216.391.756.992 1.357 1.726 1.737l.022.011c.856.437 1.976.437 4.216.437h1.6m9.334-5.334L28 16m0 0-6.667-6.667M28 16H12"/>
    </symbol>
    <symbol id="icon-pause-square" viewBox="0 0 32 32">
      <path fill="#e6533c" style="fill:var(--color1, #e6533c);stroke:var(--color1, #e6533c)" stroke="#e6533c" stroke-linejoin="round" stroke-linecap="round" d="M4 10.4c0-2.24 0-3.36.436-4.216.391-.756.992-1.357 1.726-1.737l.022-.011C7.04 4 8.16 4 10.4 4h11.2c2.24 0 3.36 0 4.216.436.756.391 1.357.992 1.738 1.726l.011.022c.436.856.436 1.976.436 4.216v11.2c0 2.24 0 3.36-.436 4.216-.391.756-.992 1.357-1.726 1.738l-.022.011c-.856.436-1.976.436-4.216.436h-11.2c-2.24 0-3.36 0-4.216-.436-.756-.391-1.357-.992-1.737-1.726l-.011-.022c-.436-.856-.436-1.976-.436-4.216v-11.2z"/>
      <path fill="none" stroke="#efede8" style="stroke:var(--color3, #efede8)" stroke-linejoin="round" stroke-linecap="round" stroke-width="1.3" d="M12.666 20v-8m6.667 8v-8"/>
    </symbol>
    <symbol id="icon-play" viewBox="0 0 24 24">
      <path fill="#e6533c" style="fill:var(--color1, #e6533c);stroke:var(--color1, #e6533c)" stroke="#e6533c" stroke-linejoin="round" stroke-linecap="round" stroke-width=".75" d="M3 7.8c0-1.68 0-2.52.327-3.162.288-.564.747-1.023 1.311-1.311C5.28 3 6.12 3 7.8 3h8.4c1.68 0 2.52 0 3.162.327.564.288 1.023.747 1.311 1.311C21 5.28 21 6.12 21 7.8v8.4c0 1.68 0 2.52-.327 3.162a3.0087 3.0087 0 0 1-1.311 1.311C18.72 21 17.88 21 16.2 21H7.8c-1.68 0-2.52 0-3.162-.327a3.0087 3.0087 0 0 1-1.311-1.311C3 18.72 3 17.88 3 16.2V7.8z"/>
      <path fill="#efede8" style="fill:var(--color2, #efede8);stroke:var(--color2, #efede8)" stroke="#efede8" stroke-linejoin="round" stroke-linecap="round" stroke-width=".975" d="m8.938 8.063 6.125 3.938-6.125 3.938V8.064z"/>
    </symbol>
    <symbol id="icon-running-figure" viewBox="0 0 32 32">
      <path fill="#ef8964" style="fill:var(--color2, #ef8964)" d="M29.648 9.451c-.219-.26-.545-.424-.909-.424-.29 0-.556.104-.762.277l.002-.002-3.28 2.757-1.51-3.739a1.179 1.179 0 0 0-.229-.364l.001.001c-.321-.716-.875-1.281-1.563-1.608l-.019-.008c-.32-.146-.651-.224-.982-.262-.072-.038-.139-.088-.222-.114l-5.776-1.61a1.1623 1.1623 0 0 0-.31-.041c-.223 0-.432.062-.611.169l.005-.003c-.33.108-.59.352-.717.664l-.003.008-2.174 5.592c-.05.127-.079.273-.079.427 0 .501.31.929.748 1.103l.008.003c.126.05.272.079.425.079.5 0 .928-.31 1.103-.748l.003-.008 1.837-4.723 2.63.731c-.064.104-.133.202-.186.312l-3.371 7.312c-.048.107-.075.216-.11.326l-4.098 6.87-6.859 2.294c-.42.323-.687.826-.687 1.391 0 .968.784 1.752 1.752 1.752.381 0 .733-.122 1.021-.328l-.005.004 7.019-2.416c.216-.157.371-.362.49-.581.088-.094.189-.168.256-.285l2.443-4.096 4.336 3.696-4.64 5.229c-.273.307-.439.714-.439 1.16 0 .967.784 1.751 1.751 1.751.521 0 .99-.228 1.31-.589l.002-.002 5.79-6.523c.179-.202.288-.432.36-.675.043-.133.043-.269.053-.406 0-.069.027-.131.021-.195-.009-.509-.239-.963-.598-1.272l-.002-.002-3.992-3.403c.288-.274.533-.6.709-.982l2.586-5.6.829 2.208c.031.211.116.398.242.551l-.002-.002c.121.138.273.247.445.314l.008.003c.018.008.038.01.059.016.096.04.208.069.325.08h.005c.024.002.052.003.081.003.116 0 .227-.017.332-.05l-.008.002h.005c.037-.01.074-.003.11-.019.186-.076.343-.192.464-.337l.002-.002 4.71-3.997c.501-.422.288-1.168-.133-1.667zM23.69 6.602c1.823 0 3.301-1.478 3.301-3.301S25.513 0 23.69 0c-1.823 0-3.301 1.478-3.301 3.301s1.478 3.301 3.301 3.301z"/>
    </symbol>
    <symbol id="icon-search-loop" viewBox="0 0 32 32">
      <path fill="none" stroke="#efede8" style="stroke:var(--color3, #efede8)" stroke-linejoin="round" stroke-linecap="round" stroke-width="2.6667" d="M14.667 25.333c5.891 0 10.667-4.776 10.667-10.667S20.558 3.999 14.667 3.999v0C8.776 3.999 4 8.775 4 14.666s4.776 10.667 10.667 10.667v0zM28 28l-5.799-5.799"/>
    </symbol>
    <symbol id="icon-settings" viewBox="0 0 32 32">
      <path fill="none" stroke="#efede8" style="stroke:var(--color3, #efede8)" stroke-linejoin="round" stroke-linecap="round" stroke-width="2.2857" d="M16 20c2.209 0 4-1.791 4-4s-1.791-4-4-4v0c-2.209 0-4 1.791-4 4s1.791 4 4 4v0z"/>
      <path fill="none" stroke="#efede8" style="stroke:var(--color3, #efede8)" stroke-linejoin="round" stroke-linecap="round" stroke-width="2.2857" d="M24.97 19.637c-.107.238-.17.515-.17.807 0 .544.217 1.038.57 1.399h0l.072.073c.439.439.711 1.045.711 1.715s-.272 1.276-.711 1.715h0c-.439.439-1.045.711-1.715.711s-1.276-.272-1.715-.711h0l-.073-.072c-.36-.353-.854-.57-1.398-.57-.292 0-.57.063-.82.175l.013-.005c-.716.313-1.208 1.013-1.211 1.829v.206c0 1.339-1.086 2.425-2.425 2.425s-2.425-1.086-2.425-2.425v0-.109a2.0014 2.0014 0 0 0-1.296-1.825l-.014-.005c-.238-.108-.515-.17-.807-.17-.544 0-1.038.218-1.399.571h0l-.073.072c-.439.439-1.045.71-1.715.71-1.339 0-2.425-1.086-2.425-2.425 0-.67.271-1.276.71-1.715l.073-.073c.353-.36.57-.854.57-1.398 0-.292-.063-.57-.175-.82l.005.013c-.313-.716-1.014-1.208-1.83-1.211h-.206c-1.339 0-2.425-1.086-2.425-2.425s1.086-2.425 2.425-2.425v0H5.2c.838-.02 1.547-.553 1.826-1.296l.005-.014c.108-.238.17-.515.17-.807 0-.544-.218-1.038-.571-1.399l-.073-.073a2.4168 2.4168 0 0 1-.71-1.715c0-1.34 1.086-2.426 2.426-2.426.67 0 1.276.272 1.715.711l.072.072c.36.353.854.57 1.398.57.292 0 .57-.063.82-.175l-.013.005h.097c.716-.313 1.209-1.013 1.213-1.829v-.206c0-1.339 1.085-2.424 2.424-2.424s2.424 1.085 2.424 2.424v.109c.003.817.496 1.518 1.2 1.826l.013.005c.238.108.515.17.807.17.544 0 1.038-.218 1.399-.571l.073-.073c.439-.439 1.045-.71 1.715-.71 1.339 0 2.425 1.086 2.425 2.425 0 .67-.271 1.276-.71 1.715v0l-.072.073c-.353.36-.57.854-.57 1.398 0 .292.063.57.175.82l-.005-.013v.097c.313.716 1.013 1.208 1.829 1.211h.206c1.339 0 2.425 1.086 2.425 2.425s-1.086 2.425-2.425 2.425v0h-.109c-.816.003-1.517.495-1.825 1.199l-.005.013z"/>
    </symbol>
    <symbol id="icon-exclamation-mark" viewBox="0 0 32 32">
      <path fill="#efa082" style="fill:var(--color1, #efa082)" d="M32 16c0 8.837-7.163 16-16 16S0 24.837 0 16 7.163 0 16 0s16 7.163 16 16z"/>
      <path fill="none" stroke="#efede8" style="stroke:var(--color2, #efede8)" stroke-linejoin="round" stroke-linecap="round" stroke-width="2.6667" d="M16 25.333v.013M16 20V6.667"/>
    </symbol>
    <symbol id="icon-trash" viewBox="0 0 32 32">
      <path fill="none" stroke="#ef8964" style="stroke:var(--color2, #ef8964)" stroke-linejoin="round" stroke-linecap="round" stroke-width="2.4" d="M12 4h8m-6.667 10v6.667M18.667 14v6.667M4 8h24m-2.667 0-.934 14.026c-.141 2.104-.211 3.157-.666 3.955-.405.703-.997 1.258-1.708 1.609l-.023.01c-.826.4-1.88.4-3.989.4h-4.026c-2.109 0-3.163 0-3.989-.4-.734-.361-1.326-.917-1.721-1.6l-.01-.019c-.454-.8-.525-1.851-.666-3.955L6.667 8"/>
    </symbol>
    <symbol id="icon-x" viewBox="0 0 32 32">
      <path fill="none" stroke="#efede8" style="stroke:var(--color3, #efede8)" stroke-linejoin="round" stroke-linecap="round" stroke-width="2.4615" d="M24 8 8 24M8 8l16 16"/>
    </symbol>
    <symbol id="icon-x-orange" viewBox="0 0 32 32">
      <path fill="none" stroke="#e6533c" style="stroke:var(--color1, #e6533c)" stroke-linejoin="round" stroke-linecap="round" stroke-width="3.5556" d="M24 8 8 24M8 8l16 16"/>
    </symbol>
  </defs>
</svg>

